<svg width="264" height="105" viewBox="0 0 264 105" fill="none" xmlns="http://www.w3.org/2000/svg">
<g clip-path="url(#clip0_8_204)">
<path d="M249.477 0.03125H14.8359V104.953H249.477V0.03125Z" fill="white"/>
<path d="M239.031 0.0933574C239.295 0.0621353 239.42 0.0153021 239.56 0.0153021C243.296 0.0153021 247.032 -0.0627532 250.768 0.0621353C256.964 0.265079 262.692 5.43234 263.689 11.5675C263.875 12.6759 263.969 13.8155 263.969 14.9239C263.969 39.9796 263.938 65.0354 264 90.0911C264.016 97.4283 259.548 102.486 254.613 104.094C252.979 104.625 251.188 104.937 249.476 104.937C214.544 104.984 179.596 104.968 144.664 104.968C144.368 104.968 144.088 104.937 143.73 104.922V80.9118C144.181 81.0367 144.601 81.1304 145.006 81.2553C152.587 83.6125 160.309 85.0644 168.263 84.9863C178.569 84.8926 188.485 83.0505 197.794 78.4765C203.756 75.5416 209.018 71.7169 212.972 66.2843C213.439 65.6442 213.859 64.9885 214.497 64.3953V88.5612H240.338V18.9203C240.027 18.9047 239.716 18.8735 239.404 18.8735C231.45 18.8735 223.51 18.8735 215.556 18.8422C214.653 18.8422 214.497 19.1545 214.497 19.9662C214.528 26.4136 214.513 32.861 214.513 39.3083V40.4323C214.279 40.2294 214.186 40.1826 214.139 40.1045C209.952 33.4698 203.927 29.0207 196.969 25.7267C191.084 22.9323 184.873 21.2307 178.428 20.3721C166.644 18.7954 155.125 19.8101 143.963 23.9783C136.974 26.5853 130.716 30.332 125.703 35.9832C123.617 38.3248 121.905 40.9163 120.737 43.8512C120.659 44.0385 120.551 44.2102 120.41 44.4756C120.286 44.2883 120.177 44.1946 120.13 44.0853C117.748 38.2 113.592 33.8289 108.517 30.2227C102.073 25.6487 94.8339 22.948 87.175 21.3088C80.7302 19.935 74.2077 19.4667 67.654 19.9038C57.2553 20.5751 47.3703 23.0885 38.3725 28.5367C33.5779 31.4404 29.406 35.0621 26.3393 39.8391C23.8486 43.7107 22.4009 47.9256 22.4164 52.5777C22.4164 57.8855 24.2845 62.5532 27.3823 66.7682C31.3363 72.1696 36.5979 75.9631 42.5289 78.8824C51.3087 83.2066 60.6489 85.1268 70.3626 85.3454C81.0727 85.5951 91.3625 83.6438 101.092 79.0385C107.101 76.1817 112.502 72.4662 116.799 67.299C117.017 67.0336 117.219 66.7526 117.515 66.3467C117.079 66.3155 116.799 66.2843 116.519 66.2843C106.883 66.2843 97.2468 66.2843 87.5953 66.2843C87.0816 66.2843 86.5367 66.4404 86.0853 66.6745C82.5671 68.4074 78.9867 69.9841 75.095 70.671C67.8097 71.9823 61.4272 70.0153 55.7608 65.3944C54.858 64.6607 54.0329 63.8645 53.1612 63.084C53.0522 62.9903 52.9899 62.8654 52.772 62.6C53.2546 62.5844 53.5815 62.5532 53.9239 62.5532C73.7095 62.5532 93.4951 62.5532 113.265 62.5532C114.978 62.5532 116.705 62.522 118.418 62.4595C118.978 62.4439 119.212 62.5844 119.212 63.1933C119.212 76.9466 119.212 90.7156 119.212 104.469C119.212 104.578 119.181 104.703 119.165 104.922C118.854 104.937 118.542 104.984 118.231 104.984C83.6568 104.984 49.067 104.984 14.4928 104.984C6.16452 104.984 0 98.724 0 90.3877C0 65.1603 0 39.9328 0 14.7053C0 7.61789 4.31205 2.04474 11.1459 0.389968C12.3446 0.0933574 13.6055 0.0309131 14.8353 0.0309131C64.5095 0.0153021 114.184 0.0309131 163.873 0.0309131C181.542 0.0309131 199.226 0.0309131 216.894 0.0309131C217.268 0.0309131 217.657 0.0309131 218.031 0.0309131C218.109 0.12458 218.186 0.218246 218.264 0.311912C218.015 0.452412 217.735 0.546078 217.533 0.733411C214.528 3.44974 214.544 6.99345 217.642 9.63172C220.07 11.708 222.997 12.6446 226.11 12.9881C229.831 13.394 233.473 13.0349 236.867 11.3645C237.941 10.8338 238.984 10.1469 239.871 9.33511C242.564 6.85295 242.549 3.5434 239.934 0.967577C239.669 0.702189 239.389 0.452412 239.031 0.108968V0.0933574Z" fill="#00B4E9"/>
<path d="M168.606 69.407C162.473 69.3133 156.666 68.002 151.514 64.5364C149.988 63.506 148.54 62.2415 147.342 60.8365C142.765 55.4507 142.967 48.5038 147.793 43.3209C151.358 39.4962 155.857 37.3107 160.885 36.2179C168.715 34.5319 176.327 35.1251 183.566 38.7937C186.212 40.1363 188.532 41.9315 190.369 44.2888C194.385 49.3936 194.276 55.7473 190.12 60.7273C186.679 64.8486 182.134 67.1122 177.059 68.3299C174.304 68.9855 171.455 69.2197 168.653 69.6412C168.653 69.5631 168.622 69.4851 168.606 69.407Z" fill="#00B4E9"/>
<path d="M52.8184 44.6322C53.1608 44.3512 53.4877 44.0702 53.8302 43.7736C57.5507 40.5109 61.676 37.9195 66.4861 36.6394C73.4134 34.7973 79.827 36.0461 85.6491 40.1831C87.5482 41.5256 89.2606 43.1023 91.0664 44.5854C91.0041 44.6791 90.9574 44.7727 90.8951 44.8664H52.9585C52.9585 44.8664 52.8651 44.7103 52.8184 44.6322Z" fill="#00B4E9"/>
</g>
<defs>
<clipPath id="clip0_8_204">
<rect width="264" height="105" fill="white"/>
</clipPath>
</defs>
</svg>
