<svg width="1512" height="880" viewBox="0 0 1512 880" fill="none" xmlns="http://www.w3.org/2000/svg">
<g clip-path="url(#clip0_39_267)">
<path d="M790.516 781.541C790.267 781.677 790.074 781.79 789.938 781.904C790.13 781.779 790.323 781.666 790.516 781.541Z" fill="#D9E0E8"/>
<path d="M790.516 781.541C791.344 781.099 792.785 780.555 794.522 779.988C794.59 779.898 794.658 779.818 794.726 779.728C793.262 780.17 791.832 780.748 790.527 781.541H790.516Z" fill="#D9E0E8"/>
<path d="M433.497 441.308C433.089 442.181 432.703 443.008 432.646 444.028C443.858 449.129 455.763 454.502 467.554 459.388C470.323 460.544 473.148 461.621 475.883 462.664C479.299 463.967 482.829 465.328 486.29 466.824C487.561 467.379 488.889 468.037 490.171 468.672C493.462 470.315 496.866 472.016 499.93 472.174C505.559 472.48 511.222 472.231 516.692 471.993C520.335 471.834 524.102 471.664 527.825 471.664C528.903 471.664 530.321 471.834 531.967 472.038C535.893 472.514 541.272 473.161 543.451 471.347C544.076 470.837 544.405 470.157 544.473 469.261C544.518 468.638 544.541 468.048 544.575 467.481C544.688 465.01 544.79 463.049 546.107 461.882C547.026 461.066 548.411 460.76 550.476 460.896C554.096 461.145 557.728 461.088 561.234 461.043C562.709 461.02 564.185 460.998 565.66 460.998C566.193 460.998 566.818 460.952 567.487 460.896C570.676 460.658 575.499 460.295 577.757 464.784C579.006 467.266 580.175 468.048 581.536 468.966C582.501 469.613 583.59 470.361 584.759 471.789C585.554 472.764 586.405 473.863 587.267 474.997C589.889 478.398 592.851 482.252 595.756 484.247C596.164 484.53 596.584 484.802 596.993 485.074C599.501 486.706 602.111 488.407 602.69 492.068C602.917 493.485 603.473 494.823 604.063 496.239C604.324 496.863 604.585 497.486 604.823 498.133C605.357 499.583 605.391 500.842 605.425 502.055C605.447 502.905 605.47 503.698 605.64 504.582C606.253 507.654 608.148 513.197 611.348 514.49C612.381 514.898 613.448 516.088 614.481 517.244C615.207 518.06 615.956 518.899 616.591 519.33C617.692 520.089 618.838 520.792 619.95 521.461C620.926 522.05 621.936 522.674 622.924 523.331C623.366 523.626 623.877 524.011 624.422 524.419C626.544 526.006 629.46 528.183 630.89 527.117C633.273 525.36 634.17 522.028 635.044 518.797C635.895 515.634 636.769 512.358 639.072 510.443C643.498 506.747 649.638 507.178 655.051 508.085L655.369 508.142C661.417 509.105 661.497 509.355 661.633 509.785C662.144 511.418 663.403 512.495 664.742 513.617C666.081 514.75 667.466 515.929 668.033 517.72C668.283 518.514 669.032 519.239 669.838 520.01C670.655 520.803 671.506 521.62 672.005 522.674C672.346 523.399 672.788 524.045 673.242 524.737C673.764 525.519 674.298 526.324 674.706 527.265C675.512 529.124 676.034 531.028 676.545 532.876C676.976 534.417 677.407 536.027 678.02 537.568C679.314 540.89 680.698 544.109 683.263 547.09C684.772 548.847 685.748 550.865 686.701 552.826C687.405 554.277 688.131 555.784 689.062 557.133C689.584 557.904 690.367 558.494 691.195 559.128C692.478 560.115 693.805 561.123 694.18 562.846C694.407 563.878 694.407 564.853 694.396 565.794C694.396 566.553 694.396 567.279 694.498 568.027C694.918 570.849 695.871 573.343 696.869 575.984C697.278 577.061 697.698 578.161 698.084 579.305C698.288 579.906 698.481 580.484 698.663 581.04C700.274 585.937 701.341 589.179 705.925 589.938C708.195 590.324 710.624 592.307 712.768 594.053C713.801 594.892 714.766 595.685 715.64 596.241C717.262 597.272 719.18 597.148 721.03 597.011C721.62 596.966 722.188 596.932 722.71 596.932C724.287 596.932 725.694 598.213 727.056 599.46C728.18 600.491 729.348 601.534 730.211 601.398C730.744 601.308 731.97 600.752 732.878 600.004L732.742 599.868C729.927 597.159 729.292 591.525 728.77 587.014C728.577 585.347 728.395 583.772 728.134 582.604C728.055 582.241 727.794 581.584 727.521 580.893C726.613 578.58 725.581 575.95 726.909 575.043C727.805 574.431 728.293 572.618 728.361 569.648C726.931 570.214 725.24 569.772 723.844 569.398L723.198 569.228L723.47 568.616C723.89 567.664 723.799 566.678 723.198 565.646C723.039 565.442 722.891 565.216 722.755 564.989L723.686 564.354C723.856 564.569 724.003 564.785 724.128 565C725.047 566.19 726.216 566.837 727.306 566.701C728.259 566.587 729.019 565.873 729.371 564.751C729.451 564.49 729.598 564.127 729.78 563.697C730.29 562.45 731.232 560.137 730.722 559.174C730.54 558.834 730.324 558.505 730.109 558.188C729.632 557.485 729.099 556.714 729.042 555.739C728.543 555.705 728.032 555.648 727.51 555.569L727.396 554.481C728.304 554.141 729.303 553.96 730.279 553.789C732.866 553.325 734.977 552.939 735.17 550.139C734.398 550.672 733.422 550.763 732.288 550.411L731.868 550.275L731.89 549.833C732.015 547.408 733.638 547.351 734.716 547.306C735.25 547.283 735.635 547.26 735.908 547.124L736.067 546.841L736.089 547.011C736.271 546.852 736.384 546.603 736.452 546.217L737.576 546.285C737.587 546.546 737.61 546.727 737.633 546.863C738.314 545.889 739.528 542.397 738.938 540.346L739.97 539.892C740.833 541.309 741.854 542.08 742.898 542.103C743.659 542.159 744.43 541.751 745.111 541.082C743.636 540.81 742.717 539.847 742.615 538.351C742.512 536.888 743.296 535.029 744.442 534.916C744.748 534.893 745.111 534.961 745.429 535.335C745.384 534.95 745.259 534.531 745.077 534.089L746.11 533.612C746.496 534.395 747.835 534.803 748.913 535.12C749.934 535.426 750.763 535.675 751.035 536.265C751.648 535.97 752.272 535.721 752.919 535.505L754.235 535.063C755.586 533.363 757.697 532.536 759.751 531.731C762.111 530.801 764.551 529.838 765.822 527.559C766.945 525.542 768.307 523.943 769.624 522.379C770.566 521.279 771.519 520.135 772.393 518.854C771.36 518.106 770.407 516.451 769.828 515.079C769.476 514.24 768.716 512.154 769.26 511.089C769.351 510.908 769.635 510.352 770.191 510.25C770.736 510.148 771.144 510.556 771.473 510.874C771.882 511.27 771.984 511.304 772.064 511.259C772.427 511.032 772.631 510.635 772.858 510.171C773.187 509.513 773.596 508.708 774.628 508.425L775.094 508.3L775.298 508.731C776.251 510.783 775.843 512.676 775.298 514.115C776.523 513.707 777.885 513.424 779.406 513.753L780.109 513.911C783.185 512.324 786.362 511.44 789.041 510.942C788.326 509.808 788.042 508.618 788.212 507.45C788.428 505.954 789.381 504.548 790.811 503.573L791.458 503.131L791.673 503.88C792.241 505.829 791.446 507.156 790.743 508.334C790.55 508.663 790.368 508.969 790.21 509.287C792.388 510.103 795.725 509.536 797.28 509.083C798.437 508.742 798.426 505.829 798.414 503.902C798.414 503.109 798.414 502.361 798.471 501.805L798.675 500.048L799.538 501.601C800.922 504.095 800.968 506.022 799.651 508.108C801.433 508.776 803.192 509.672 804.906 510.533C807.073 511.633 809.309 512.767 811.533 513.401C813.36 513.923 814.835 513.651 816.39 513.367C817.389 513.186 818.422 512.993 819.545 513.027C819.023 511.928 819.193 511.01 819.477 510.375C820.328 508.504 822.972 507.45 824.481 507.428H825.355L825.004 508.221C824.538 509.287 824.64 509.547 824.64 509.559C824.765 509.627 825.412 509.536 825.798 509.491C826.388 509.411 827.069 509.309 827.682 509.423L828.181 509.513L828.147 510.023C828.079 511.066 828.703 512.313 829.815 513.345C830.893 514.354 832.369 514.954 833.163 514.716C833.492 514.614 833.719 514.365 833.844 513.957C833.855 513.9 833.878 513.832 833.889 513.775L834.99 514.07C834.967 514.138 834.956 514.206 834.933 514.274C834.23 516.983 835.773 519.783 837.464 521.529C839.416 523.535 841.856 524.521 843.683 524.034C844.545 523.807 844.704 523.297 844.908 522.413C845.238 521.03 845.76 519.851 848.619 520.486C851.286 521.087 851.593 522.016 852.081 524.261C852.103 524.374 852.126 524.499 852.16 524.623C853.828 523.796 854.067 521.722 853.885 518.899C853.862 518.525 853.284 517.516 852.852 516.779C852.047 515.385 851.604 514.603 852.001 514.07C852.171 513.855 852.659 513.186 855.451 514.614C857.675 515.759 860.07 517.618 860.104 519.398C861.613 519.795 864.927 521.121 865.494 521.858C865.812 522.266 866.005 522.662 866.153 522.991C866.459 523.637 866.584 523.909 867.401 524.023L867.968 524.102L867.878 524.669C867.787 525.281 867.639 525.882 867.469 526.46C867.832 526.199 868.229 526.029 868.683 526.029C869.228 526.029 869.75 526.244 870.283 526.698C870.465 526.233 870.749 525.791 871.01 525.36C871.634 524.351 871.861 523.887 871.577 523.603C871.123 523.15 870.715 522.583 870.317 522.028C869.682 521.155 869.024 520.237 868.331 520.021C868.025 519.919 867.73 519.829 867.435 519.738C865.063 519.001 863.009 518.366 861.488 515.181C860.91 513.968 860.388 512.358 861.159 511.531C861.477 511.191 861.931 511.055 862.521 511.134C862.419 510.567 862.464 510.103 862.657 509.717C863.043 508.958 863.872 508.742 864.609 508.538C865.483 508.312 866.016 508.13 866.187 507.552C866.584 506.226 865.676 504.673 864.632 504.22C864.076 503.982 863.645 504.129 863.338 504.673L863.134 505.024C862.51 506.135 861.92 507.178 860.921 507.178H860.898C860.093 507.167 859.378 506.464 858.549 504.9C857.959 503.778 858.901 502.689 859.9 501.76C859.673 501.783 859.446 501.805 859.219 501.828C858.368 501.919 857.482 501.998 857.017 502.236C855.326 503.109 852.194 503.29 850.083 502.089C848.948 501.442 848.529 500.298 848.903 498.847C849.436 496.75 851.672 494.233 853.022 494.199C855.133 494.142 856.858 495.491 858.538 496.784C860.547 498.337 862.283 499.685 864.428 498.733C865.404 498.303 865.948 497.736 866.482 497.18C867.231 496.398 868.002 495.593 869.727 495.355C870.454 495.253 872.542 494.709 873.801 494.278L873.722 494.244L874.823 493.644C875.719 493.156 876.74 493.859 877.637 494.494C878.125 494.834 878.885 495.355 879.158 495.265C879.249 495.231 879.362 495.072 879.441 494.834L879.975 495.027L880.508 495.219C880.576 495.027 880.463 494.834 880.383 494.789C880.815 495.038 883.277 494.925 883.708 494.63C884.333 494.165 885.172 494.108 885.978 494.052C887.124 493.972 887.68 493.87 887.862 493.338C888.452 491.569 889.031 489.212 889.587 486.332L889.905 484.7L890.654 486.185C891.108 487.08 894.467 495.185 893.128 497.679C894.433 497.838 895.738 497.577 896.884 496.908C898.473 495.99 899.517 494.38 899.721 492.51L899.846 491.433L900.663 492.136C901.73 493.066 901.809 493.961 901.695 494.551C901.616 494.913 901.457 495.253 901.23 495.559C901.798 495.197 902.297 494.652 902.728 493.938C902.853 493.734 903.012 493.383 903.205 492.998C904.045 491.241 904.589 490.164 905.44 490.356C905.77 490.424 905.997 490.662 906.155 491.127C906.416 490.583 906.689 490.05 906.973 489.54L907.982 490.05C907.755 490.549 907.733 491.025 907.914 491.456C908.141 491.977 908.641 492.397 909.333 492.646L910.354 493.009L909.48 493.644C909.208 493.836 908.924 494.018 908.641 494.188C910.456 494.097 912.238 493.825 913.532 493.19C913.906 493.009 914.304 492.703 914.712 492.397C915.711 491.626 916.857 490.764 918.355 491.116C919.433 491.377 921.68 492.238 922.44 493.666C922.611 493.995 922.599 494.335 922.395 494.596C921.975 495.174 920.466 495.219 919.024 495.117C921.782 496.727 925.391 498.824 927.717 498.892C927.377 498.495 927.025 498.11 926.673 497.713L925.856 496.795L927.093 496.772C928.455 496.738 929.817 496.682 931.178 496.614L931.916 496.58L932.109 497.69C931.213 497.974 930.327 498.949 930.384 499.572C930.441 500.116 931.417 500.298 931.837 500.343C933.051 500.479 933.743 501.182 933.891 501.805C933.993 502.247 933.834 502.655 933.482 502.882C933.403 502.939 933.289 502.984 933.142 503.018C933.357 503.381 933.403 503.676 933.289 503.936C935.434 505.501 936.955 508.346 936.387 510.783C939.315 510.647 941.539 509.785 943.015 508.21L943.957 507.19L943.991 508.572C943.991 508.958 944.093 509.071 944.104 509.083C944.184 509.117 944.728 509.219 946.839 507.394L946.987 507.269C947.656 506.702 948.394 506.407 948.995 506.169C950.198 505.693 950.561 505.557 950.005 504.038L949.688 503.165L950.607 503.279C951.798 503.426 952.718 502.814 953.694 502.168C954.965 501.329 956.406 500.366 958.517 501.136C961.115 502.077 963.884 504.9 965.269 507.212C966.075 508.561 966.846 509.978 967.584 511.361C969.57 515.034 971.613 518.831 974.654 521.62C975.653 522.538 976.447 522.946 977.139 523.308C978.456 523.989 979.5 524.533 980.635 527.661C981.667 530.54 982.11 532.978 982.064 535.596C982.019 538.351 981.281 541.15 980.566 543.871C979.5 547.918 978.41 552.078 979.488 556.295C979.908 556.295 980.249 556.793 980.862 557.689C981.951 555.546 981.724 554.912 981.463 554.73C979.931 553.631 979.511 552.237 980.181 550.48L980.408 549.89L980.975 550.173C982.303 550.842 983.313 551.987 983.767 553.302C983.994 553.075 984.221 552.86 984.459 552.645L984.947 552.191L985.321 552.735C986.626 554.662 985.945 557.723 984.879 559.945C984.198 561.362 983.074 562.982 981.837 563.708C983.733 565.476 984.425 568.299 985.094 571.042C985.503 572.708 985.889 574.273 986.524 575.508C987.296 577.027 988.295 577.73 988.907 577.866C989.123 577.911 989.225 577.877 989.248 577.866C989.293 577.787 989.259 577.22 988.261 576.143L989.044 575.327C990.383 576.449 991.132 576.03 991.642 575.553L992.528 576.245C992.017 577.14 992.153 583.964 992.879 585.268C993.413 584.928 993.833 584.316 994.287 583.681C994.888 582.82 995.501 581.935 996.488 581.55L997.078 582.491C996.556 582.978 996.159 583.636 995.739 584.338C995.24 585.166 994.729 586.016 993.98 586.617C996.182 588.238 996.465 590.981 996.715 593.441C996.817 594.484 996.919 595.47 997.158 596.354C997.771 598.689 998.973 599.313 1000.64 600.163C1001.16 600.435 1001.72 600.707 1002.29 601.07C1004.98 602.77 1005.66 605.139 1006.33 607.417C1006.69 608.676 1007.06 609.968 1007.78 611.192C1008.05 611.668 1008.62 612.258 1009.21 612.87C1010.55 614.253 1012.06 615.828 1011.72 617.551L1011.59 618.186L1010.98 617.971C1009.85 617.574 1008.8 616.746 1008.02 615.636C1007.77 616.293 1007.71 617.007 1008.22 617.585C1008.99 618.458 1010.8 618.707 1012.1 618.107C1012.9 617.744 1013.74 617.937 1014.48 618.107C1015.6 618.367 1016.02 618.39 1016.36 617.676C1016.69 616.973 1017.07 616.327 1017.68 616.293C1018.2 616.293 1018.53 616.769 1018.76 617.166C1018.86 617.313 1018.99 617.563 1019.07 617.608C1021.94 615.42 1023.35 607.723 1024.28 602.634C1024.46 601.67 1024.62 600.797 1024.77 600.049C1025.28 597.329 1026.61 574.896 1023.25 571.484C1022.91 571.133 1022.62 571.133 1022.41 571.167L1021.32 571.359L1021.81 570.362C1023.25 567.415 1020.44 560.885 1018.76 556.975L1018.25 555.773C1015.32 548.768 1013.2 541.831 1011.83 534.565L1012.94 534.327C1013.3 535.834 1014.1 536.48 1014.95 537.16C1015.26 537.398 1015.56 537.648 1015.85 537.931C1015.59 536.922 1015.1 535.8 1014.28 534.145C1009.22 523.955 1006.02 515.045 1004.51 506.906C1004.22 505.308 1004.02 503.608 1003.83 501.953C1003.5 499.119 1003.17 496.171 1002.32 493.576C1002.12 492.93 1001.86 492.453 1001.62 492.034C1001.12 491.127 1000.65 490.266 1001.92 489.076C1002.06 488.951 1002.13 488.826 1002.13 488.724C1002.13 488.622 1002.07 488.407 1001.7 488.055C1000.18 486.355 1000.86 483.068 1001.35 480.665C1001.5 479.871 1001.65 479.18 1001.69 478.715C1001.81 476.743 1002.82 476.04 1003.71 475.405C1004.11 475.11 1004.51 474.838 1004.84 474.43C1003.92 473.353 1002.84 472.594 1001.66 472.174L1001.99 471.086C1002.45 471.199 1002.89 471.347 1003.29 471.483C1003.67 471.608 1004.18 471.778 1004.44 471.812C1004.43 471.642 1004.35 471.256 1004.02 470.474L1004.93 469.839C1005.32 470.191 1005.5 470.202 1005.51 470.202C1005.51 470.202 1005.56 469.964 1005.49 469.601C1005.37 468.966 1004.92 468.116 1004.01 467.606L1004.32 466.541C1005.29 466.597 1006.16 466.314 1006.68 465.793C1006.96 465.498 1007.16 465.135 1007.25 464.693C1006.97 464.818 1006.69 464.942 1006.41 465.056L1005.92 465.26L1005.68 464.784C1005.31 464.024 1005.06 463.242 1004.93 462.449L1004.78 461.474L1005.7 461.836C1006.62 462.199 1007.38 462.188 1008.03 461.814C1007.73 461.304 1007.44 460.794 1007.13 460.283L1006.79 459.705L1007.42 459.467C1010.93 458.118 1011.31 456.872 1012.33 453.528C1012.46 453.12 1012.58 452.689 1012.73 452.224C1012.77 452.065 1012.83 451.895 1012.9 451.703L1013.95 452.054C1014.16 451.555 1014.27 450.988 1014.15 450.501C1013.92 449.651 1013.59 448.812 1013.23 447.939C1012.88 447.089 1012.52 446.216 1012.27 445.309L1013.35 444.958C1013.64 445.695 1014.34 447.157 1014.87 448.041C1014.87 447.939 1014.85 447.815 1014.83 447.69C1014.79 447.531 1014.77 447.372 1014.76 447.191L1015.88 447.055C1015.91 447.225 1015.93 447.384 1015.95 447.531C1016.1 448.268 1016.44 448.699 1016.97 448.835C1017.22 448.891 1017.47 448.891 1017.69 448.835L1017.37 447.815C1018.06 447.452 1018.36 447.214 1018.48 447.089C1018.27 446.987 1017.87 446.874 1017.65 446.817C1017.06 446.658 1016.51 446.5 1016.52 445.944C1016.52 445.751 1016.59 445.593 1016.73 445.457C1016.4 445.309 1016.29 445.162 1016.22 444.969L1016.12 444.663L1016.36 444.346C1016.92 443.711 1019.85 443.904 1020.13 443.96C1021.73 444.289 1022.61 443.654 1023.81 442.759L1024.18 442.498C1024.6 442.203 1025.03 441.931 1025.47 441.671C1027.34 440.537 1028.71 439.721 1027.49 436.626C1027.47 436.581 1027.46 436.536 1027.43 436.49L1028.49 436.071C1028.49 436.071 1028.52 436.162 1028.55 436.207C1028.79 436.774 1029.15 437.409 1029.61 437.465C1030.79 437.567 1032.6 434.779 1033.59 433.271C1034.2 432.33 1034.56 431.786 1034.87 431.526C1035.55 430.936 1036.21 431.061 1036.65 431.151C1037.1 431.242 1037.29 431.276 1037.65 430.755C1037.8 430.551 1037.81 430.301 1037.82 430.018C1037.84 429.53 1037.89 428.703 1038.98 428.442C1039.51 428.306 1039.53 427.717 1039.33 426.13C1039.31 425.948 1039.28 425.756 1039.26 425.574C1039.01 424.758 1039.06 423.953 1039.41 423.251C1039.53 422.933 1039.74 422.65 1040.03 422.423L1040.78 423.273C1040.64 423.409 1040.53 423.568 1040.44 423.727C1040.29 424.135 1040.3 424.713 1040.37 425.325C1040.41 425.427 1040.45 425.54 1040.51 425.642L1040.74 425.098C1042.95 419.759 1045.23 414.25 1050.49 412.221C1051.99 411.643 1053.62 411.462 1055.19 411.292C1058.92 410.884 1061.6 410.589 1061.29 405.715L1062.4 405.511C1062.54 405.93 1062.65 406.35 1062.75 406.769C1063.7 403.436 1064.96 400.251 1067.62 398.222C1067.88 398.018 1068.26 397.848 1068.65 397.655C1069.36 397.327 1070.33 396.873 1070.32 396.34C1070.32 396.023 1070.28 395.66 1070.23 395.297C1070.12 394.277 1069.98 393.121 1070.56 392.305L1071.51 390.967L1071.59 392.6C1071.66 393.96 1071.94 394.334 1072.05 394.368C1072.27 394.425 1073.06 393.915 1073.99 392.6C1075.44 390.559 1078.6 390.627 1081.73 391.115C1081.73 391.092 1081.73 391.081 1081.74 391.058C1082 390.299 1083.11 390.163 1084.9 390.027C1085.5 389.981 1086.42 389.902 1086.63 389.788C1087.56 389.108 1088.32 387.725 1088.82 386.422C1088.55 386.581 1088.28 386.762 1088.04 386.955L1087.09 387.691L1087.13 386.501C1087.13 386.331 1087.12 386.104 1086.99 386.014C1086.53 385.674 1084.89 386.274 1083.9 386.626C1083.25 386.864 1082.68 387.068 1082.26 387.125C1079.68 387.499 1077.66 386.127 1076.72 383.339L1076.14 381.65L1077.59 382.704C1080.83 385.062 1082.01 385.141 1083.9 383.203C1084.18 382.931 1084.14 382.466 1084.07 381.786C1084 381.026 1083.89 379.983 1084.86 379.496C1085.06 379.394 1085.19 379.281 1085.19 379.212C1085.2 378.362 1081.78 376.458 1079.94 375.438C1078.56 374.667 1077.37 374.01 1076.82 373.511L1077.54 372.638C1078.89 373.613 1080.28 373.93 1081.75 374.259C1082.5 374.429 1083.26 374.599 1084.03 374.871C1083.95 374.27 1084.05 373.817 1084.2 373.499C1084.48 372.865 1085.06 372.389 1085.83 372.162L1087.01 371.81L1086.51 372.933C1086.3 373.409 1086.12 373.908 1085.97 374.418C1088.02 375.619 1090.75 376.571 1092.52 376.118C1093.21 375.937 1093.71 375.562 1094.04 374.984C1094.22 374.667 1094.39 374.157 1094.57 373.613C1095.05 372.196 1095.6 370.586 1096.85 370.167C1097.25 370.031 1097.68 370.042 1098.14 370.19C1098.15 369.453 1098.27 368.761 1098.4 368.081C1098.65 366.687 1098.87 365.451 1098.12 363.989C1097.75 364.295 1097.32 364.465 1096.94 364.624C1096.1 364.964 1095.73 365.157 1095.75 366.018C1095.79 367.707 1095.58 369.532 1093.83 370.28L1092.39 370.892L1093.11 369.498C1093.77 368.228 1094.03 365.633 1093.7 363.706C1093.47 362.447 1091.89 362.595 1089.86 362.912C1088.87 363.071 1088.09 363.184 1087.56 362.992C1087.14 362.833 1086.7 363.025 1086.04 363.366C1085.24 363.774 1084.26 364.272 1083.14 363.604C1082.55 363.252 1082.15 362.504 1081.92 361.393C1081.45 359.047 1081.9 355.295 1082.55 354.411L1083.54 354.955C1082.99 356.417 1082.86 359.183 1084.91 360.384C1086.05 361.053 1086.63 360.588 1087.5 359.908C1087.76 359.704 1088.02 359.489 1088.32 359.307C1087.89 358.831 1087.43 358.378 1086.96 357.925L1087.62 357.018C1087.85 357.142 1088.19 357.346 1088.56 357.573C1089 357.845 1089.79 358.321 1090.34 358.593C1090.21 358.378 1090.03 358.061 1089.74 357.641L1090.6 356.916C1091.85 358.129 1092.65 358.095 1093.22 357.766C1092.87 357.176 1092.48 356.61 1092.09 356.077L1092.95 355.351C1093.78 356.224 1094.37 356.44 1094.63 356.338C1094.82 356.27 1095.05 355.907 1095.09 355.113L1095.17 353.821L1096.07 354.751C1096.35 355.045 1096.6 355.34 1096.83 355.646C1096.47 354.535 1095.93 353.379 1095.39 352.211C1094.71 350.761 1094.02 349.253 1093.64 347.768L1094.64 347.292C1094.76 347.451 1094.87 347.575 1094.96 347.666C1094.96 347.417 1094.96 347.054 1094.88 346.532L1094.64 344.832L1095.84 346.056C1096.1 346.317 1096.32 346.578 1096.51 346.85C1096.35 346.158 1096.19 345.467 1096.01 344.775C1095.92 344.413 1095.84 344.05 1095.76 343.71C1095.35 341.874 1095.07 340.899 1093.62 340.457L1093.45 340.4C1092.68 340.162 1090.85 339.607 1090.44 340.026C1090.38 340.094 1090.21 340.366 1090.54 341.329L1089.6 341.908C1088.97 341.239 1088.31 340.899 1087.81 340.967C1087.49 341.012 1087.23 341.216 1087.01 341.59L1086.02 341.057C1087.13 338.858 1083.75 335.526 1080.22 333.145C1079.52 332.681 1078.39 332.34 1077.29 332.012C1075.7 331.536 1074.2 331.094 1073.57 330.175L1072.51 328.656L1074.24 329.314C1075.62 329.835 1076.87 330.221 1078.07 330.572C1082.04 331.762 1085.2 332.715 1088.32 337.986C1088.97 337.623 1089.33 337.203 1089.42 336.716C1089.7 335.231 1087.66 333.032 1085.64 330.992C1085.13 330.561 1084.64 330.039 1084.18 329.529C1083.38 328.724 1082.66 327.942 1082.11 327.228L1082.95 326.469C1083.42 326.9 1083.89 327.466 1084.4 328.067C1084.62 328.316 1084.82 328.554 1085.03 328.781C1085.3 329.053 1085.57 329.337 1085.86 329.609C1086.06 329.813 1086.28 330.028 1086.48 330.232C1087.13 330.754 1087.71 331.003 1088.24 330.822C1087.92 330.266 1087.59 329.699 1087.25 329.155L1086.59 328.078L1087.84 328.305C1089.24 328.554 1090.27 328.373 1090.46 327.829C1090.68 327.228 1089.99 325.834 1087.79 324.61C1084.4 322.728 1080.26 317.072 1079.42 313.184L1080.45 312.753L1081.14 313.784C1082.96 316.596 1086.02 321.288 1088.22 321.288C1088.24 321.288 1088.26 321.288 1088.28 321.288C1088.95 321.254 1089.53 320.756 1090.07 319.758C1091.08 317.854 1091.11 317.196 1089.07 315.655C1088.43 315.167 1087.79 314.351 1087.1 313.49C1086.32 312.492 1085.44 311.359 1084.82 311.189C1084 310.962 1083.38 310.849 1082.83 310.747C1081.01 310.418 1080.27 310.18 1078.32 307.652C1077.63 306.79 1077 306.802 1076.14 306.813C1075.37 306.824 1074.51 306.847 1073.61 306.156C1071.81 304.773 1073.26 302.154 1074.79 299.388C1076.02 297.178 1077.41 294.662 1076.87 293.086L1077.87 292.564C1080.15 295.727 1078.18 297.881 1076.74 299.456C1076.31 299.932 1075.89 300.386 1075.63 300.817C1074.8 302.154 1075.3 303.832 1076.04 304.308C1076.61 304.682 1077.15 304.149 1077.49 303.639L1077.99 302.902L1078.46 303.662C1078.98 304.535 1079.67 305.328 1080.44 305.997C1080.43 305.725 1080.49 305.51 1080.62 305.328C1080.79 305.09 1081.15 304.841 1081.86 304.988L1082.33 305.079V305.555C1082.28 307.176 1083.93 307.958 1085.82 308.853C1087.14 309.477 1088.5 310.123 1089.37 311.132C1089.7 309.579 1087.98 307.595 1086.34 305.963C1083.8 303.503 1083.59 301.111 1083.56 298.232L1084.7 298.21C1084.74 301.123 1085.94 303.526 1088.18 305.237C1088.01 304.217 1087.59 302.54 1087.23 301.111C1085.74 295.228 1084.81 290.978 1086.39 289.787C1086.5 289.697 1086.63 289.629 1086.76 289.583C1086.51 289.266 1086.42 288.971 1086.51 288.665C1086.62 288.314 1086.9 288.11 1087.3 287.985C1086.36 286.987 1085.6 285.865 1085.01 284.641L1084.32 283.213L1085.75 283.882C1086.16 284.074 1086.57 284.256 1086.98 284.437C1086.95 283.122 1087.52 281.558 1088.51 281.093C1088.9 280.912 1089.54 280.798 1090.26 281.467C1090.45 280.708 1090.8 280.039 1091.3 279.472L1092.74 277.851L1092.28 279.959C1092.19 280.368 1092.14 280.662 1092.12 280.889C1092.46 280.47 1092.86 279.823 1092.95 279.438C1093.26 278.214 1093.75 276.173 1096.36 276.514L1097.05 276.604L1096.82 277.262C1096.8 277.33 1096.77 277.409 1096.74 277.477C1097.14 277.148 1097.53 276.808 1097.92 276.457L1099.47 275.051L1098.84 277.058C1098.45 278.282 1097.81 279.279 1096.91 280.039C1097.44 280.424 1097.98 280.787 1098.51 281.15L1099.74 281.966L1098.28 282.181C1094.71 282.703 1092.45 283.757 1091.75 285.219C1091.38 285.967 1091.44 286.874 1091.89 287.917C1092.12 287.634 1092.35 287.327 1092.55 287.021L1093.37 285.82L1093.57 287.259C1093.9 289.561 1092.57 290.32 1091.51 290.932C1090.88 291.284 1090.43 291.567 1090.19 291.998C1090.78 291.85 1091.44 291.884 1091.97 291.998C1093.1 292.224 1093.89 292.78 1094.08 293.494C1094.2 293.902 1094.16 294.525 1093.4 295.206C1092.74 295.795 1091.97 295.761 1091.39 295.75C1091.07 295.75 1090.76 295.727 1090.65 295.829C1090.62 295.852 1090.6 295.886 1090.57 295.965C1090.74 295.965 1090.92 295.965 1091.1 295.999C1092.96 296.362 1094.96 299.116 1095.58 300.318L1096.38 301.86L1094.82 301.089C1094.04 300.703 1093.27 300.431 1092.51 300.284C1093.11 301.485 1092.69 302.415 1092.32 303.208C1092.09 303.73 1091.87 304.217 1091.9 304.773C1091.93 305.158 1093.14 306.201 1093.8 306.756C1094 306.938 1094.21 307.108 1094.4 307.267C1094.42 306.847 1094.55 306.598 1094.76 306.416C1095.17 306.076 1095.66 306.269 1096.02 306.416C1096.26 306.507 1096.54 306.62 1096.67 306.552C1096.73 306.53 1096.91 306.382 1097.08 305.77L1098.19 305.929C1098.17 307.199 1097.98 308.411 1097.6 309.556C1098.43 309.658 1099 309.953 1099.33 310.44C1099.96 311.393 1099.44 312.685 1098.93 313.932C1098.85 314.124 1098.77 314.317 1098.69 314.51C1099.47 314.204 1100.51 314.147 1101.83 314.691L1103.46 315.349L1101.76 315.768C1100.97 315.961 1099.55 319.282 1098.95 320.699C1098.66 321.379 1098.41 321.98 1098.21 322.354C1096.84 325.029 1094.58 329.45 1096.18 333.565C1097.24 333.236 1097.66 331.196 1098.01 329.529C1098.18 328.736 1098.33 327.988 1098.56 327.455C1099.19 325.891 1100.12 324.508 1101.02 323.181C1101.87 321.912 1102.75 320.597 1103.37 319.146C1103.65 318.489 1103.91 317.842 1104.17 317.196C1105.27 314.487 1106.32 311.937 1108.02 309.522C1108.29 309.148 1108.64 308.785 1109.02 308.411C1109.74 307.675 1110.5 306.926 1110.56 306.054C1110.56 306.054 1110.82 303.276 1111.46 302.948H1111.48C1111.44 302.664 1111.36 302.392 1111.22 302.143C1110.94 301.621 1110.44 301.293 1109.7 301.134L1108.51 300.873L1109.47 300.125C1110.86 299.06 1110.54 296.759 1108.59 293.834C1107.09 291.578 1106.4 289.391 1105.73 287.271C1105.11 285.344 1104.54 283.519 1103.4 281.682C1102.06 279.529 1101.62 277.511 1102.1 275.697C1102.94 272.489 1106.39 270.574 1108.9 269.179L1109.47 268.862L1110.21 269.678C1109.62 270.517 1108.58 271.254 1107.47 272.025C1105.78 273.215 1103.87 274.564 1103.64 276.343C1103.49 277.5 1104.04 278.781 1105.3 280.266C1107.35 282.68 1108.84 283.451 1110.71 284.426C1111.5 284.845 1112.41 285.31 1113.43 285.945C1115.27 287.089 1114.58 289.357 1114.12 290.864C1114.07 291.046 1114.01 291.216 1113.97 291.386C1116.25 290.807 1117.69 288.302 1118.98 285.763C1119.12 285.503 1119.36 284.754 1119.61 283.972C1120.75 280.379 1121.66 277.828 1123.07 277.964C1124.71 278.1 1125.14 275.89 1125.58 272.467C1125.96 269.463 1126.38 266.3 1128.74 266.414H1128.76C1129.48 263.557 1130.05 260.599 1129.71 257.402C1127.16 256.994 1125.42 255.668 1125.2 253.945C1125.01 252.403 1126.12 250.963 1128.12 250.204C1128.79 249.943 1129.28 249.569 1129.62 249.104L1129.1 248.81C1129.55 247.608 1130 246.384 1130.31 245.103C1130.22 244.038 1130.01 242.893 1129.81 241.736C1129.45 239.639 1129.09 237.667 1129.39 236.057L1129.72 234.278L1130.47 235.921C1132.15 239.605 1132.09 242.564 1131.44 245.239C1131.47 245.602 1131.48 245.953 1131.48 246.293C1134.62 243.482 1138.33 241.555 1142.22 239.537C1142.98 239.141 1143.76 238.744 1144.52 238.336C1147.44 236.783 1149.38 236.737 1152.82 236.783C1153.65 236.783 1155.85 236.828 1156.49 236.001C1156.56 235.91 1156.76 235.638 1156.58 234.98C1156.58 234.958 1156.57 234.935 1156.56 234.924L1157.65 234.618C1157.65 234.618 1157.65 234.64 1157.66 234.663C1157.95 235.57 1161.19 235.989 1167.64 234.776C1171.22 234.096 1171.63 232.158 1172.24 229.211C1172.48 228.077 1172.74 226.796 1173.25 225.493L1173.75 224.201L1174.31 225.47C1174.87 226.785 1175.26 226.944 1175.36 226.966C1175.63 227.012 1176.12 226.524 1176.51 226.128C1176.82 225.81 1177.15 225.481 1177.52 225.221L1178.3 226.025C1177.54 227.057 1177.55 228.599 1177.55 230.22C1177.55 230.469 1177.55 230.73 1177.55 230.979C1180.18 230.548 1182.36 228.814 1184.48 227.136C1185.14 226.615 1185.8 226.094 1186.46 225.629L1187.55 224.847L1187.34 226.173C1187.17 227.318 1187.05 228.508 1186.96 229.721C1190.15 229.834 1197.47 228.066 1197.86 225.991C1197.96 225.493 1197.97 224.813 1197.86 224.042C1197.52 224.994 1196.85 225.81 1195.94 226.377C1194.14 227.465 1191.9 227.272 1190.06 225.878C1187.57 223.996 1186.97 221.888 1186.39 219.848C1185.97 218.385 1185.57 217.003 1184.48 215.756C1184.08 215.291 1183.25 214.905 1182.43 214.531C1181.28 213.999 1180.09 213.454 1179.68 212.491C1178.5 209.725 1182.28 207.254 1184.55 205.78C1184.79 205.633 1185.01 205.486 1185.2 205.361C1183.82 204.216 1183.04 202.674 1182.93 200.781C1182.58 195.295 1187.72 188.415 1189.83 186.601C1190.53 186 1192.79 182.554 1192.75 181.863C1192.03 179.199 1194.26 177.635 1195.89 176.501C1196.38 176.161 1196.84 175.832 1197.16 175.526L1198.26 174.483L1198.11 175.991C1198.09 176.172 1198.08 176.342 1198.07 176.501L1198.76 176.773L1199.32 176.048L1199.73 176.864C1199.94 177.294 1200.15 177.725 1200.35 178.167C1200.53 177.238 1200.66 175.957 1200.51 175.027C1200.42 174.415 1200.26 174.302 1200.26 174.291L1199.39 174.551L1199.52 173.667C1199.75 172.352 1200.4 171.355 1201.44 170.709L1202.2 171.513C1201.71 172.216 1201.61 173.123 1201.69 174.121C1201.89 173.542 1202.15 173.066 1202.43 172.851C1202.68 172.658 1202.97 172.624 1203.24 172.738C1203.53 172.862 1203.77 173.123 1203.95 173.849C1204.08 173.656 1204.21 173.452 1204.33 173.259L1205.43 171.559L1205.38 173.588C1205.35 174.438 1205.48 174.755 1205.86 175.333C1206.83 173.44 1208.26 172.851 1209.54 172.33C1210.87 171.785 1212.12 171.275 1212.99 169.382C1213.37 168.566 1213.56 167.625 1213.75 166.617C1213.98 165.449 1214.22 164.236 1214.8 163.216C1215.18 162.513 1215.79 162.06 1216.37 161.618C1217.22 160.983 1217.88 160.473 1217.86 159.351L1218.98 159.248C1219.38 161.799 1219.72 164.055 1221.96 165.88C1221.56 164.349 1221.45 163.216 1221.91 162.626C1222.13 162.343 1222.47 162.218 1222.84 162.23L1223.14 162.252C1223.32 162.264 1223.55 162.286 1223.68 162.275C1223.68 162.162 1223.65 161.924 1223.51 161.47L1224.58 161.096C1224.95 161.992 1225.18 162.32 1225.28 162.434C1225.4 162.332 1225.55 162.105 1225.68 161.958C1226.1 161.402 1226.68 160.643 1227.61 160.382C1229.46 159.861 1230.56 162.06 1231.14 163.681C1231.17 163.477 1231.18 163.239 1231.21 162.967C1231.25 162.207 1231.33 160.949 1232.54 160.949C1233.35 160.949 1233.84 160.371 1234.39 159.691C1234.87 159.124 1235.36 158.534 1236.1 158.228L1236.91 157.888L1236.88 158.772C1236.82 160.223 1237.15 160.382 1237.15 160.382C1237.35 160.461 1237.92 160.337 1239.71 158.591L1240.01 158.296C1241.4 156.993 1242.95 156.63 1244.77 156.211L1244.98 156.165C1246.31 155.859 1248.11 155.428 1248.67 154.204C1248.98 153.535 1248.85 152.799 1248.67 152.674C1248.6 152.617 1248.27 152.685 1247.73 153.218L1246.97 153.955L1246.78 152.912C1246.57 151.79 1246.89 150.985 1247.17 150.282C1247.52 149.409 1247.77 148.775 1247.07 147.55C1246.44 146.439 1245.61 145.725 1244.97 145.725C1244.64 145.725 1244.37 145.941 1244.14 146.349L1243.78 147.006L1243.25 146.485C1240.61 143.923 1240.82 141.27 1241 138.935C1241.03 138.527 1241.06 138.131 1241.08 137.734C1241.15 136.034 1240.84 135.977 1239.83 135.818C1238.97 135.682 1237.8 135.478 1236.62 134.231C1234.72 132.225 1235.14 127.974 1235.45 124.879C1235.55 123.893 1235.63 123.043 1235.62 122.488C1235.57 120.957 1235.52 119.416 1235.45 117.874C1235.33 114.995 1235.2 112.002 1235.23 109.123C1235.28 105.496 1233.8 98.9893 1230.46 96.5409C1229.09 95.5434 1227.52 95.328 1225.78 95.8948C1225.62 95.9514 1225.24 96.1441 1224.78 96.3595C1222.46 97.5044 1218.12 99.6355 1215.41 98.4566C1214.47 98.0485 1213.82 97.2777 1213.49 96.1895C1212.88 94.1491 1212.13 92.9816 1211.37 92.9022C1209.76 92.7322 1207.59 96.6202 1206.28 98.944C1205.77 99.8508 1205.34 100.633 1204.99 101.109C1204.28 102.05 1203.47 102.968 1202.69 103.841C1201.04 105.7 1199.34 107.616 1198.41 109.939C1198.03 110.892 1197.97 112.036 1197.91 113.136C1197.81 114.904 1197.71 116.729 1196.38 118.044C1194.7 119.711 1193.06 122.454 1193.48 125.14C1194.06 128.813 1192.89 129.912 1191.13 131.567C1190.86 131.817 1190.58 132.089 1190.28 132.384C1189.74 132.95 1185.97 139.207 1185.86 140.092C1185.86 140.058 1185.86 139.922 1185.76 139.797L1185.35 140.114V140.171L1185.28 140.738C1184.31 140.624 1184.29 140.783 1184.16 141.588C1184.04 142.279 1183.89 143.22 1182.85 143.81L1182.43 144.048L1182.12 143.674C1181.69 143.152 1181.26 142.631 1180.83 142.109C1179.9 142.687 1178.81 142.857 1177.82 143.005C1176.84 143.152 1175.91 143.3 1175.29 143.798C1174.31 144.603 1173.93 146.179 1173.58 147.709C1173.5 148.038 1173.43 148.366 1173.34 148.684C1172.72 150.996 1168.31 150.588 1165.4 150.327C1164.94 150.282 1164.55 150.248 1164.24 150.237C1154.66 149.715 1145.66 149.908 1136.14 150.112L1133.92 150.157C1131.59 150.203 1129.13 150.112 1126.74 150.01C1122.13 149.817 1117.35 149.625 1113.27 150.498C1108.83 151.438 1105.28 155.462 1102.44 158.693L1101.03 160.303C1098.62 163.069 1096.34 165.687 1093.02 167.625L1092.74 167.784C1091.64 168.419 1090.4 169.144 1090.01 170.312C1089.81 170.924 1089.93 171.321 1090.01 171.366C1090.04 171.389 1090.34 171.366 1090.87 170.799L1091.83 171.343C1091.56 172.273 1091.68 172.658 1091.78 172.738C1091.98 172.896 1092.7 172.76 1093.51 172.284L1094.23 173.134C1092.2 175.583 1091.45 177.861 1091.72 180.74C1092.01 183.744 1089.91 184.492 1088.22 185.082C1087.69 185.263 1087.15 185.456 1086.67 185.705C1085.78 186.181 1084.96 186.771 1084.09 187.406C1082.41 188.63 1080.67 189.888 1078.3 190.206C1077.03 190.376 1075.76 190.387 1074.53 190.398C1072.71 190.421 1071 190.432 1069.36 190.942C1067.8 191.43 1066.06 190.455 1064.39 189.514C1063.28 188.891 1062.14 188.256 1061.12 188.074C1057.95 187.508 1054.53 187.462 1051.5 187.938C1046.45 188.732 1044.61 189.616 1043.14 193.629C1044.26 193.912 1045.17 194.751 1045.73 196.055C1046.61 198.106 1046.49 201.008 1045.47 202.142C1043.95 203.853 1042.14 205.384 1040.38 206.857C1039.46 207.639 1038.55 208.41 1037.67 209.215C1031.42 214.962 1023.27 218.646 1016.13 221.491C1015.2 221.865 1014.24 222.217 1013.27 222.58C1010.45 223.622 1007.54 224.688 1005.19 226.286C1004.38 226.842 1003.6 227.601 1002.79 228.406C1000.95 230.208 998.826 232.26 995.796 232.158C993.742 232.09 992.006 232.555 990.178 233.042C988.385 233.518 986.524 234.017 984.391 233.938C983.585 233.915 982.745 233.654 981.94 233.405C981.349 233.223 980.793 233.053 980.271 232.974C979.579 232.861 978.989 233.053 978.365 233.246C977.366 233.552 976.243 233.904 974.722 233.11L973.916 232.691L974.643 232.147C975.165 231.761 975.766 231.512 976.39 231.342C976.05 231.274 975.721 231.16 975.403 230.956L975.301 230.866C974.745 230.254 974.121 229.744 973.44 229.347C972.657 229.029 971.771 228.78 970.92 228.542C970.273 228.361 969.627 228.179 968.991 227.953C967.879 227.567 967.198 226.944 966.971 226.094C966.472 224.212 968.435 221.933 969.615 220.573C969.842 220.312 970.035 220.097 970.149 219.938C970.716 219.168 971.034 218.238 971.374 217.252C971.703 216.288 972.044 215.28 972.645 214.418C973.201 213.613 973.905 212.978 974.586 212.366C975.278 211.743 975.936 211.142 976.436 210.394C976.935 209.634 977.048 208.558 977.162 207.413C977.253 206.563 977.344 205.69 977.604 204.908C977.866 204.148 978.444 203.649 979.205 203.536C980.056 203.411 980.964 203.785 981.474 204.488C981.792 204.93 981.928 205.452 981.883 205.996C982.473 205.78 982.95 205.384 983.347 204.806C985.548 201.598 984.425 193.788 983.131 189.31C982.802 188.154 982.552 186.59 982.28 184.787C981.61 180.491 980.782 175.152 978.217 172.613C977.48 171.887 976.742 171.559 975.914 171.604C973.655 171.74 971.204 174.869 969.411 177.147C968.185 178.711 967.221 179.947 966.381 180.264C966.245 180.321 965.938 180.502 965.632 180.695C964.395 181.443 962.341 182.701 960.65 181.999C959.708 181.602 959.05 180.661 958.71 179.21C957.722 175.061 960.786 173.168 963.022 171.785L963.362 171.57C964.338 170.958 964.781 169.892 965.235 168.759C965.791 167.41 966.415 165.868 968.117 165.177C970.228 164.304 970.557 159.373 969.978 156.301C969.842 155.587 969.525 154.703 969.184 153.773C968.299 151.325 967.3 148.559 969.116 147.301C969.456 147.063 969.604 146.7 969.536 146.19C969.343 144.569 967.107 141.905 964.497 140.896C961.819 139.865 959.277 138.471 956.803 137.122C955.226 136.26 953.591 135.376 951.923 134.571L951.163 134.197C949.506 133.392 945.625 131.499 944.581 131.726C943.344 131.998 940.609 135.013 940.666 137.292C940.7 138.459 941.494 139.151 943.128 139.423L944.308 139.616L943.401 140.409C942.334 141.339 940.881 141.611 939.474 141.86C937.08 142.302 935.616 142.687 935.582 145V145.51C935.525 149.149 935.457 153.263 932.234 155.077L931.508 154.238C931.825 153.83 932.052 153.331 932.166 152.787C931.791 153.286 931.337 153.705 930.793 154.068L929.987 153.309C930.725 152.073 930.736 150.396 930.759 148.616C930.759 147.856 930.781 147.086 930.849 146.337C930.475 146.814 930.168 147.38 929.851 147.958C929.124 149.296 928.296 150.804 926.446 151.291C924.914 151.699 924.63 152.232 924.12 153.207C923.882 153.66 923.609 154.159 923.189 154.748C922.758 155.326 922.225 155.734 921.748 156.086C920.885 156.732 920.25 157.197 920.239 158.478C920.239 158.976 920.239 159.453 920.239 159.917C920.25 161.946 920.273 163.851 919.501 165.778C919.149 166.639 918.502 167.455 917.878 168.237C917.004 169.326 916.108 170.459 916.062 171.672C916.028 172.568 916.221 173.452 916.426 174.404C916.698 175.708 916.993 177.045 916.664 178.394L916.573 178.757C915.756 182.067 914.519 187.077 919.751 189.831L920.534 190.24L919.83 190.784C918.695 191.645 919.433 195.136 920.034 197.948C920.409 199.705 920.749 201.36 920.727 202.527C920.625 205.769 919.966 208.886 918.559 212.638C916.641 217.819 913.963 223.566 908.595 226.864C903.557 229.982 899.766 229.732 897.326 226.139C893.298 220.199 890.88 209.566 892.447 204.67C893.003 202.958 892.39 200.952 891.754 198.832C891.414 197.698 891.062 196.531 890.881 195.374C890.347 191.951 890.778 188.415 892.106 185.399C893.15 183.019 893.638 180.423 894.092 177.907C894.637 174.948 895.193 171.887 896.691 169.156C897.372 167.909 897.576 166.299 897.792 164.587C897.962 163.182 898.143 161.742 898.631 160.473C898.688 160.325 898.847 160.008 899.063 159.589C899.71 158.319 901.423 154.964 900.981 153.819C900.935 153.694 900.867 153.626 900.754 153.592C897.69 152.447 896.192 154.51 894.444 156.891C893.252 158.523 892.015 160.212 890.188 160.643L889.644 160.779L889.507 160.235C888.815 157.503 889.768 154.397 892.276 151.28C892.878 150.532 893.774 150.191 894.569 149.897C895.284 149.636 895.953 149.387 896.316 148.888C896.646 148.434 896.748 147.766 896.861 147.052C896.986 146.258 897.111 145.442 897.576 144.762C898.643 143.22 899.517 141.18 900.436 139.026C902.183 134.923 903.999 130.695 907.517 128.949L908.595 128.416L908.312 129.595C908.085 130.57 908.096 131.658 908.368 132.848C909.322 132.406 909.991 131.783 910.695 131.137C911.761 130.139 912.874 129.119 914.973 128.711L915.983 128.518L915.609 129.482C915.336 130.162 914.973 130.751 914.61 131.329C914.099 132.157 913.6 132.95 913.441 133.936C914.894 133.188 915.824 131.941 916.811 130.638C918.457 128.45 920.159 126.194 924.267 126.421C926.753 126.557 928.421 125.832 930.191 125.061C932.642 123.995 935.184 122.884 939.69 124.505C940.938 124.947 941.925 125.956 942.89 126.931C943.786 127.838 944.649 128.711 945.511 128.87C945.852 127.759 946.726 125.979 946.737 125.968C948.314 124.585 951.015 125.254 953.625 125.888C955.997 126.466 958.244 127.022 959.254 126.024C958.687 125.548 958.165 124.981 957.654 124.437C956.508 123.202 955.419 122.046 954.057 121.944L953.955 120.833C954.443 120.697 954.624 119.756 954.374 118.588C954.023 116.922 952.888 115.233 951.719 115.437C948.553 115.947 945.375 116.321 941.381 115.414L941.04 115.335L940.961 114.995C940.427 112.717 940.632 110.744 940.859 108.84C939.758 109.044 938.668 109.282 937.602 109.52C935.559 109.973 933.448 110.438 931.213 110.631C930.055 110.733 928.841 110.687 927.672 110.631C925.811 110.563 924.052 110.495 922.542 110.948C921.147 111.379 919.921 112.252 918.627 113.181C916.131 114.972 913.305 117.001 908.913 115.494C907.472 114.995 906.337 114.859 905.248 114.723C903.035 114.451 901.117 114.213 898.121 111.05C894.41 107.14 891.119 105.065 888.77 105.19C887.726 105.246 886.863 105.745 886.148 106.697L885.195 106.085C885.297 105.904 885.377 105.745 885.445 105.598C884.503 106.403 883.152 107.82 882.88 108.239L882.154 109.373L881.847 108.069C881.666 107.264 881.791 106.539 881.915 105.836C882.086 104.884 882.222 104.068 881.62 103.115C881.246 102.526 880.746 101.959 880.258 101.415C879.532 100.599 878.795 99.7601 878.409 98.774C876.321 100.724 873.972 102.22 871.498 103.796C870.374 104.51 869.217 105.246 868.104 106.017C866.516 107.117 864.45 107.321 862.442 107.525C860.637 107.706 858.765 107.888 857.346 108.749C856.756 109.112 856.166 109.52 855.553 109.939C853.488 111.368 851.15 113 848.075 113C846.316 113 845.941 112.785 844.908 112.059C844.636 111.866 844.318 111.628 843.876 111.356C843.581 111.175 843.161 111.345 842.491 111.64C841.788 111.957 840.982 112.308 840.131 112.07L839.121 111.787L839.904 111.096C841.254 109.917 842.31 107.208 841.935 104.85C840.687 105.122 838.894 105.983 836.862 106.969C831.517 109.554 824.186 113.102 819.568 108.772L819.216 108.443L819.477 108.046C821.043 105.655 823.449 104.124 825.787 102.639C827.069 101.823 828.385 100.984 829.52 100.021C830.802 98.8986 831.983 97.6064 833.118 96.3595C834.423 94.9312 835.762 93.4463 837.316 92.1767C843.717 86.9624 852.126 83.5845 860.274 80.3312L860.683 80.1725C860.285 80.1498 859.911 80.1498 859.548 80.1498C857.948 80.1385 856.427 80.1272 853.896 78.6422C852.296 77.7014 850.821 77.8488 849.391 77.9961L848.585 78.0755C846.917 78.2342 843.456 78.5629 841.72 76.9759C841.198 76.4998 840.88 75.8991 840.778 75.1736C838.928 75.321 837.453 76.1031 835.898 76.9306C833.867 78.0075 831.767 79.1183 828.748 78.8236C827.364 78.6876 826.309 77.9734 825.843 76.8626C825.526 76.0804 825.219 76.0011 824.481 75.8197C823.993 75.695 823.381 75.5477 822.654 75.1396C822.234 74.9015 821.826 74.6635 821.417 74.4255C819.863 73.5073 818.387 72.6345 816.923 72.5891C816.923 72.7138 816.958 72.8838 816.98 72.9972C817.06 73.53 817.173 74.2441 816.606 74.5842C816.299 74.7655 815.652 74.9696 814.847 74.3121C814.007 73.632 813.11 72.0337 812.974 70.9341C812.089 70.7754 811.329 70.3674 810.807 69.7666C810.398 69.2905 810.16 68.7237 810.115 68.1116C809.059 67.8509 807.913 67.4315 806.699 66.9894C804.066 66.0259 801.081 64.949 799.538 65.7992L799.288 65.9352C796.894 67.2841 793.455 68.9845 791.242 68.3157C790.539 68.1003 790.017 67.6695 789.676 67.0234C788.746 65.1984 783.65 64.7337 780.915 64.4843C779.951 64.3936 779.19 64.3256 778.725 64.2236C774.492 63.3054 774.004 59.7007 773.527 56.2208C773.255 54.2144 772.971 52.14 771.95 50.6664C771.031 49.3401 769.953 48.7734 769.022 49.1021C768.273 49.3628 767.728 50.1903 767.785 50.9725C767.819 51.4259 767.876 51.902 767.944 52.3894C768.16 53.999 768.375 55.6653 767.524 56.6288C767.104 57.1049 766.48 57.343 765.674 57.343H307.565C306.839 57.343 305.817 57.2523 304.648 57.1503C301.823 56.9009 296.568 56.4361 296.307 57.8871C296.194 58.4992 296.761 60.1542 297.885 61.2764C298.361 61.7524 299.11 62.2965 299.962 62.1492L300.835 61.9905L300.608 62.852C300.449 63.4414 300.586 64.3936 300.71 65.3118C300.926 66.8421 301.142 68.429 300.154 69.1885C299.587 69.6306 298.736 69.6872 297.556 69.3472C297.794 69.8913 298.01 69.8913 298.327 69.9026C298.861 69.914 299.678 69.948 300.676 71.0022C302.118 72.5211 302.481 73.8814 302.81 75.0829C303.105 76.1938 303.366 77.1573 304.387 78.2568C306.056 80.0478 305.046 81.7028 304.149 83.1537C303.298 84.5367 302.492 85.8516 303.434 87.5065C306.01 92.0521 304.058 94.0811 302.333 95.8608C301.879 96.3255 301.459 96.7676 301.119 97.2437C301.04 97.357 300.949 97.5611 300.835 97.7878C300.359 98.7853 299.36 100.848 297.476 100.055C297.34 99.9982 297.215 99.9415 297.09 99.8962L297.068 100.055L296.897 99.8282C295.729 99.4428 295.32 99.6921 295.207 99.7828C294.991 99.9755 294.957 100.406 295.082 100.984C295.127 101.132 295.173 101.29 295.218 101.46L294.128 101.778C294.072 101.596 294.015 101.426 293.981 101.268C293.822 100.746 293.675 100.452 293.584 100.293C293.414 100.531 293.209 100.769 292.994 100.996L292.063 100.372C292.177 100.123 292.324 99.8282 292.517 99.5901C292.46 99.5901 292.404 99.6128 292.347 99.6241C292.165 99.6921 291.972 99.7375 291.768 99.7828L291.496 98.6833C291.666 98.6266 291.836 98.5813 292.006 98.5359C292.857 98.1959 293.277 97.4364 293.754 96.5636C294.231 95.6907 294.775 94.6932 295.865 94.1718L296.557 95.0333C296.217 95.4527 296.148 96.0421 296.353 96.7336C296.5 95.3507 296.886 93.7977 298.736 93.5257L299.496 93.4123L299.292 94.6819C299.371 94.4892 299.417 94.2738 299.462 94.0811C299.723 92.6188 299.235 90.8505 298.656 90.5444C298.6 90.5104 298.475 90.4538 298.191 90.7371L297.556 91.3493L297.261 90.5218C296.625 88.7534 297.635 87.3365 298.52 86.0783C299.519 84.6614 300.064 83.7885 299.315 82.723C298.861 83.3124 298.475 83.9472 298.089 84.548C297.136 86.0669 296.148 87.6312 294.299 88.7194C293.039 89.4562 292.335 90.2384 292.131 91.0885C291.995 91.6893 292.12 92.3694 292.494 93.0836C293.209 92.6415 294.004 92.2674 294.843 91.9614L295.434 92.9022L295.161 93.1743C294.537 93.809 293.697 94.6819 292.256 94.6025L292.165 94.6592L292.12 94.5912C291.473 94.5345 290.713 94.2965 289.816 93.7637L289.362 93.503L289.589 93.0269C289.896 92.4148 290.168 91.78 290.452 91.1452C291.121 89.6489 291.802 88.1073 292.755 86.7584C294.287 84.5367 295.059 83.8792 295.74 84.1853C296.024 84.31 296.171 84.548 296.228 84.8767C297.09 83.8565 298.021 82.5983 297.635 81.6008C297.397 80.966 296.909 80.2405 296.444 79.5264C295.91 78.7216 295.365 77.8828 295.082 77.0893C294.991 77.1686 294.911 77.2593 294.866 77.3727C294.673 77.7581 294.73 78.3475 295.025 79.0276L294.026 79.5604C292.528 77.316 288.193 77.1233 284.709 76.9759C283.393 76.9193 282.156 76.8626 281.191 76.7039C277.912 76.1598 274.7 74.9809 271.602 73.8247C269.128 72.9065 266.563 71.9657 263.987 71.3536C263.499 71.2402 263.374 71.4329 263.306 71.5349C262.24 73.1332 264.498 80.4219 266.609 83.3011C270.104 88.0733 271.216 92.6868 272.306 97.1417C272.635 98.4906 272.952 99.7942 273.327 101.086L273.452 100.633L274.121 101.12C275.835 102.379 277.571 103.081 278.763 102.991L279.012 104.079C278.513 104.272 277.991 104.43 277.48 104.589C276.255 104.963 275.086 105.303 274.746 106.097C274.507 106.629 274.621 107.423 275.063 108.466C276.425 108.318 277.991 108.76 279.727 109.792L279.239 110.812C278.751 110.619 278.082 110.449 277.741 110.676C277.242 111.016 277.208 112.286 277.185 113.408C277.151 114.995 277.117 116.775 275.767 117.285C276.017 118.146 276.368 118.883 276.856 119.268C277.129 119.472 277.424 119.54 277.776 119.472C278.184 119.393 278.536 119.302 278.865 119.212C280.238 118.86 281.328 118.577 283.87 119.631C284.233 119.779 284.687 120.005 285.163 120.232C286.207 120.742 288.386 121.796 288.908 121.456L290.576 120.334L289.737 122.159C288.954 123.859 285.856 123.247 282.576 122.601C281.044 122.295 279.591 122.012 278.717 122.057C278.139 122.091 277.73 122.25 277.48 122.533C276.936 123.145 277.015 124.46 277.095 125.73C277.151 126.716 277.219 127.725 277.027 128.62C276.663 130.343 275.812 134.379 278.525 137.326L279.648 138.55L278.014 138.278C277.469 138.187 277.219 138.346 277.083 138.471C276.289 139.185 276.459 141.531 276.55 142.925C276.573 143.254 276.595 143.549 276.607 143.798C276.902 151.336 276.312 156.551 274.814 159.759C274.099 161.289 274.042 163.318 273.997 165.29C273.962 166.628 273.928 168.011 273.69 169.28L273.554 170.006C273.213 171.774 272.873 173.599 272.669 175.469C272.635 175.81 272.533 176.24 272.419 176.682C272.249 177.385 271.92 178.689 272.226 178.972C272.272 179.006 272.34 179.04 272.453 179.051C272.771 178.938 273.134 178.881 273.543 178.859L273.747 179.97C273.361 180.094 273.009 180.162 272.703 180.185C271.33 180.763 270.955 182.599 270.717 184.935C270.887 184.867 271.057 184.844 271.239 184.878C271.716 184.969 272.022 185.456 272.079 186.193C272.09 186.351 272.169 187.723 271.364 188.018C271.159 188.097 270.955 188.154 270.762 188.21C270.002 188.426 269.877 188.46 269.991 189.185C269.991 189.185 269.991 189.197 269.991 189.208L268.867 189.401C268.867 189.401 268.867 189.401 268.867 189.389C268.844 189.287 268.833 189.197 268.81 189.129C268.561 189.537 268.152 190.455 267.494 192.507L267.426 192.711C266.665 195.046 265.962 197.562 266.439 200.441C266.597 201.484 266.972 202.504 267.346 203.491C267.902 205.01 268.493 206.574 268.311 208.24C268.266 208.682 268.198 209.124 268.129 209.566C267.88 211.187 267.619 212.865 268.402 214.849C268.912 216.141 269.491 217.093 270.002 217.943C270.989 219.576 271.772 220.868 271.307 223.237C271.137 224.121 271.954 225.708 272.748 227.238C273.509 228.712 274.303 230.242 274.473 231.569C274.677 233.178 274.246 234.561 273.838 235.91C273.327 237.565 272.85 239.129 273.554 241.056C274.428 243.391 273.792 245.284 273.282 246.803L273.225 246.973C273.157 247.098 273.1 247.211 273.055 247.313C273.157 247.234 273.27 247.166 273.384 247.087L274.042 248.005C273.736 248.254 273.463 248.458 273.225 248.617C270.32 251.111 270.24 255.543 270.433 260.27C270.467 261.097 272.635 263.455 274.371 265.359C276.243 267.4 278.002 269.316 278.593 270.653C280.374 274.654 280.454 278.418 280.533 282.068C280.601 284.856 280.658 287.736 281.509 290.671C282.338 293.539 284.902 296.135 287.376 298.652C289.964 301.27 292.404 303.741 293.016 306.53C294.764 308.049 295.66 310.01 296.455 311.744L295.468 312.299C294.492 310.86 294.106 310.803 294.083 310.803C293.924 310.939 293.777 311.869 293.686 312.504C294.877 312.401 296.421 313.626 298.032 314.941C299.133 315.836 300.279 316.766 300.949 316.913C301.119 316.947 301.233 316.947 301.301 316.89C301.652 316.607 301.607 315.224 301.584 314.215C301.539 312.492 301.494 310.871 302.583 310.338C303.502 309.896 304.83 310.44 306.895 312.129L307.508 312.628L306.839 313.048C304.399 314.578 305.17 317.128 306.759 321.141C307.474 322.977 308.223 324.87 308.461 326.729L308.654 328.237L307.519 327.228C307.111 326.865 306.612 326.491 306.078 326.095C304.864 325.188 303.502 324.168 302.799 322.932C302.322 322.093 302.356 321.266 302.39 320.529C302.401 320.144 302.424 319.77 302.356 319.407C302.14 319.531 301.959 319.758 301.789 320.064C300.949 321.629 301.074 324.927 302.05 326.593C302.992 328.226 303.264 329.722 303.502 331.048C303.911 333.327 304.228 335.129 307.519 337.113C308.132 337.487 308.745 337.827 309.324 338.144C312.172 339.72 314.873 341.216 313.023 345.025C312.774 345.535 312.547 345.977 312.354 346.362C311.264 348.493 311.003 349.004 311.571 353.073C311.786 354.626 313.534 356.451 315.225 358.208C316.757 359.806 318.334 361.461 319.095 363.162C319.242 363.502 319.39 363.842 319.526 364.17C320.377 366.188 321.172 368.081 322.942 369.566L323.532 370.053C325.892 372.003 329.127 374.678 328.809 377.161C328.582 378.963 329.331 379.519 330.466 380.369C331.408 381.06 332.474 381.854 333.053 383.497C333.78 385.538 333.507 387.442 333.235 389.29C333.019 390.809 332.815 392.237 333.144 393.722C333.972 397.429 337.695 397.474 340.679 397.508C341.701 397.519 342.574 397.531 343.255 397.689C344.209 397.905 345.196 398.029 346.229 398.154C349.372 398.539 352.618 398.936 355.614 402.144C359.109 405.896 361.027 407.2 364.874 407.03C369.413 406.848 370.162 409.932 370.73 412.187C371.036 413.423 371.308 414.488 372.035 414.76C373.385 415.259 374.089 415.271 374.713 415.282C376.007 415.305 376.801 415.441 379.581 418.048C380.603 419.023 381.624 419.884 382.611 420.723C385.596 423.251 388.41 425.631 389.829 430.007C390.521 432.16 390.941 434.269 391.338 436.32C391.77 438.542 392.212 440.832 393.029 443.144C396.275 442.748 399.52 442.328 402.755 441.909C412.753 440.605 423.091 439.245 433.645 438.848L434.439 438.814L434.201 439.574C434.008 440.186 433.758 440.73 433.509 441.263L433.497 441.308Z" fill="#D9E0E8"/>
<path d="M1196.12 219.314C1196.25 219.575 1196.36 219.825 1196.46 220.051C1196.74 220.709 1196.89 221.003 1197.25 221.117C1196.98 220.493 1196.64 219.904 1196.23 219.439C1196.2 219.394 1196.16 219.36 1196.12 219.314Z" fill="#D9E0E8"/>
<path d="M753.078 537.149C752.942 537.319 752.806 537.466 752.67 537.614C752.761 537.568 752.84 537.512 752.931 537.455L753.09 537.138L753.078 537.149Z" fill="#D9E0E8"/>
<path d="M906.802 704.936C904.022 703.507 898.143 706.046 900.345 707.293C898.03 706.375 895.533 704.913 893.275 705.638C894.364 705.672 895.431 705.933 896.498 706.432C890.551 705.763 885.149 702.793 879.589 705.4C875.322 707.395 871.69 708.937 866.992 709.594C860.478 710.513 850.242 712.202 848.733 721.043C849.164 720.386 849.504 719.66 849.765 718.867C849.266 724.659 847.098 729.205 847.325 735.462C847.416 738.08 848.176 741.13 847.019 743.351C845.873 745.562 844.114 746.786 843.399 749.404C842.014 754.437 842.65 759.017 838.598 762.168C835.693 764.424 831.392 765.966 829.917 770.024C831.506 769.071 832.936 767.836 834.388 766.657C833.333 767.654 832.323 768.709 831.358 769.82C836.454 770.239 832.55 775.567 830.677 776.53C830.371 777.21 830.167 777.936 830.042 778.707C829.157 778.661 828.271 778.537 827.375 778.31C825.99 778.446 824.935 777.856 823.88 779.103C824.129 777.154 820.044 773.39 823.732 774.161C821.394 769.797 808.298 772.778 810.046 778.31C809.365 776.122 800.286 778.083 794.499 779.953C792.581 782.47 788.064 783.581 785.42 784.42C781.062 785.791 778.849 786.188 776.035 781.314C772.721 775.589 767.649 772.121 762.077 771.849C760.352 771.758 758.547 771.633 756.868 770.59C756.822 771.633 756.357 772.121 755.495 772.053C755.234 772.109 755.052 772.223 754.905 772.347C755.109 771.044 754.859 769.842 753.441 769.4C754.224 768.267 755.461 770.262 756.845 770.386C754.11 769.015 753.475 766.408 752.272 763.551C750.887 760.252 748.425 757.679 747.278 754.222C744.543 745.97 742.455 739.985 737.757 732.571C733.672 726.121 730.018 718.141 728.554 710.445C727.85 706.761 726.545 706.443 725.138 703.417C723.572 700.05 724.253 696.389 723.05 692.943C725.195 696.683 726.216 700.719 728.826 704.176C730.211 706.001 728.338 709.107 728.849 711.317C729.95 705.729 731.459 705.956 727.464 700.492C723.742 695.402 722.426 689.871 721.835 683.75C721.268 677.776 723.708 673.072 723.39 667.268C723.072 662.598 725.376 656.148 722.278 651.659C724.752 652.078 725.512 632.774 725.91 630.518C727.793 619.693 732.934 610.715 734.568 599.901C734.546 599.901 734.523 599.901 734.489 599.901C733.456 601.273 731.345 602.293 730.415 602.452C728.996 602.701 727.691 601.5 726.307 600.23C725.104 599.131 723.867 597.997 722.732 597.997C722.221 597.997 721.688 598.031 721.132 598.076C719.191 598.213 716.99 598.36 715.049 597.124C714.13 596.535 713.131 595.719 712.076 594.857C710.045 593.191 707.741 591.309 705.766 590.98C700.501 590.108 699.23 586.231 697.607 581.311C697.425 580.756 697.232 580.178 697.028 579.588C696.642 578.455 696.234 577.367 695.825 576.301C694.804 573.603 693.828 571.053 693.385 568.117C693.26 567.289 693.26 566.485 693.272 565.714C693.272 564.796 693.272 563.923 693.079 563.016C692.795 561.701 691.683 560.851 690.514 559.955C689.652 559.298 688.755 558.618 688.131 557.7C687.155 556.271 686.406 554.73 685.68 553.245C684.715 551.261 683.807 549.391 682.4 547.758C679.722 544.641 678.303 541.32 676.964 537.908C676.34 536.31 675.886 534.677 675.455 533.102C674.956 531.299 674.445 529.44 673.673 527.649C673.31 526.799 672.822 526.074 672.3 525.292C671.835 524.6 671.358 523.886 670.984 523.081C670.575 522.22 669.803 521.472 669.054 520.757C668.192 519.919 667.295 519.057 666.955 517.992C666.49 516.518 665.287 515.498 664.004 514.421C662.654 513.276 661.247 512.097 660.611 510.261C660.259 510.125 659.091 509.83 655.187 509.207L654.858 509.15C649.694 508.289 643.861 507.858 639.798 511.258C637.778 512.947 636.984 515.906 636.144 519.035C635.225 522.458 634.272 525.983 631.571 527.978C629.46 529.531 626.294 527.173 623.74 525.269C623.207 524.872 622.719 524.498 622.288 524.215C621.323 523.569 620.325 522.957 619.36 522.378C618.236 521.698 617.079 520.984 615.944 520.213C615.195 519.692 614.435 518.842 613.629 517.946C612.687 516.892 611.711 515.804 610.928 515.487C606.423 513.684 604.709 505.659 604.528 504.752C604.335 503.766 604.312 502.882 604.289 502.031C604.255 500.864 604.233 499.753 603.767 498.472C603.54 497.849 603.279 497.237 603.03 496.624C602.44 495.207 601.827 493.757 601.577 492.192C601.066 489.03 598.785 487.545 596.38 485.969C595.96 485.697 595.528 485.414 595.109 485.13C592.056 483.033 589.037 479.1 586.359 475.631C585.497 474.509 584.657 473.421 583.874 472.457C582.807 471.154 581.831 470.496 580.889 469.861C579.459 468.898 578.12 467.991 576.736 465.248C574.806 461.439 570.789 461.734 567.566 461.983C566.863 462.04 566.216 462.085 565.66 462.085C564.184 462.085 562.72 462.108 561.257 462.131C557.727 462.176 554.073 462.233 550.408 461.983C548.694 461.87 547.536 462.097 546.867 462.686C545.902 463.536 545.823 465.282 545.721 467.492C545.698 468.07 545.664 468.671 545.619 469.306C545.528 470.508 545.051 471.471 544.189 472.185C541.624 474.294 536.199 473.647 531.842 473.126C530.23 472.933 528.834 472.763 527.824 472.763C524.136 472.763 520.38 472.933 516.748 473.092C511.244 473.341 505.559 473.591 499.873 473.273C496.582 473.092 493.076 471.346 489.671 469.646C488.4 469.011 487.095 468.365 485.847 467.821C482.408 466.336 478.89 464.987 475.486 463.684C472.751 462.629 469.914 461.553 467.122 460.396C455.195 455.454 443.154 450.013 431.84 444.867L431.511 444.719V444.357C431.488 442.906 431.988 441.829 432.476 440.786C432.6 440.525 432.714 440.265 432.827 440.004C422.614 440.435 412.593 441.75 402.891 443.019C399.497 443.461 396.104 443.903 392.7 444.311L392.416 444.345C392.893 446.828 394.924 449.174 396.082 451.543C396.32 452.87 396.535 454.185 396.74 455.499C397.443 456.395 398.192 457.245 398.998 458.039C399.872 459.251 402.039 461.19 401.324 462.425C400.519 463.82 400.076 465.645 401.132 467.878C402.55 470.87 405.489 473.001 406.579 476.255C407.396 478.669 405.852 480.403 408.19 482.659C413.252 487.579 409.223 489.914 411.697 495.219C412.162 494.743 412.582 494.21 412.968 493.643C412.23 495.287 414.965 496.568 415.169 499.515C415.328 501.759 414.386 503.471 415.374 505.829C418.018 512.143 422.115 515.033 427.199 518.649C433.384 523.047 438.536 531.537 442.791 538.078C446.888 544.369 441.951 549.209 441.282 554.276C441.759 553.8 442.247 553.336 442.757 552.893C442.916 553.936 442.315 557.96 443.676 558.652C445.992 559.819 445.628 554.9 445.288 553.676C448.046 555.807 448.67 562.268 447.126 564.138C447.966 558.833 440.646 560.182 439.466 555.047C436.901 558.652 431.227 556.113 427.119 555.637C428.81 561.112 435.358 561.939 437.401 566.813C438.263 568.865 437.639 569.704 439.795 571.246C440.839 571.597 441.883 571.903 442.927 572.175C443.608 572.855 444.221 573.592 444.766 574.408C446.933 576.074 448.829 576.539 450.44 579.192C451.11 580.303 452.653 582.921 453.754 581.697C455.116 580.189 456.977 581.98 458.452 581.119C459.905 580.269 459.269 577.299 459.916 575.78C460.949 577.775 459.314 578.183 459.814 579.928C460.506 582.354 462.969 585.369 464.58 587.296C468.087 591.525 472.376 592.103 475.361 596.66C482.692 608.471 476.053 615.737 477.506 627.141C477.755 625.86 477.914 624.545 477.994 623.196C477.71 628.829 483.225 631.131 485.994 635.075C489.308 639.791 494.335 641.548 498.035 645.606C500.577 648.383 502.449 651.954 505.253 654.402C506.989 655.921 508.816 657.508 510.042 659.651C511.71 662.575 511.471 670.238 514.569 671.768C516.93 672.936 521.946 667.302 523.262 665.5C526.565 660.965 521.639 658.336 519.631 654.595C518.746 652.951 517.997 647.034 516.873 646.093C514.831 644.37 510.756 640.766 509.451 638.204C508.907 639.224 509.066 640.596 508.623 641.673C508.578 641.786 508.475 641.877 508.351 641.967C503.006 642.375 499.771 633.817 501.689 629.238C503.187 625.656 500.622 623.819 499.181 620.43C497.819 617.222 497.399 613.425 497.286 610.16C491.907 611.713 490.897 579.464 482.022 577.763C482.919 579.917 484.984 584.123 483.736 585.868C482.76 582.751 478.822 575.632 480.763 573.422C475.667 570.441 474.272 563.152 469.585 559.071C466.112 556.056 464.455 546.183 464.921 542.578C465.125 541.014 462.356 540.322 461.527 539.62C460.506 538.747 460.018 536.423 459.507 535.278C458.543 533.09 455.638 527.003 453.436 529.576C451.904 522.401 449.805 518.456 444.335 512.868C438.297 506.713 434.314 503.437 434.984 495.094C435.256 491.671 434.53 487.93 434.212 484.348C433.928 481.083 430.876 477.944 431.171 474.747C431.466 471.584 432.26 468.082 432.294 464.885C432.317 462.301 429.128 459.977 428.084 457.483C431.67 460.816 435.143 461.802 438.604 465.044C440.238 466.574 442.315 468.297 444.221 468.467C446.207 468.637 446.128 466.302 447.898 466.438C453.084 466.858 450.576 471.868 454.208 473.194C456.443 474.01 460.177 473.976 462.015 476.64C463.139 478.272 461.573 483.623 461.686 485.754C461.936 490.345 465.76 494.516 466.668 499.118C467.78 504.741 468.609 507.971 471.253 513.582C472.047 515.271 473.001 522.798 475.259 520.1C477.233 524.249 475.996 527.695 479.673 531.322C481.795 533.419 482.522 537.953 484.61 540.447C485.96 542.057 487.89 542.159 489.047 544.12C490.171 546.036 491.215 548.824 492.713 550.468C494.46 552.372 497.887 552.542 498.716 555.467C498.716 554.378 499 553.449 499.522 552.701C499.408 554.378 503.357 555.047 504.992 555.274C501.678 555.217 504.458 565.566 505.366 568.638C506.228 571.529 511.914 572.232 513.764 572.787C516.419 573.569 515.67 580.133 518.201 582.275C520.527 584.247 521.798 582.048 523.807 583.284C526.338 584.837 527.461 588.101 527.223 590.652C528.891 588.997 529.572 590.754 529.754 592.828C528.142 590.414 527.359 593.282 527.087 594.801C526.621 591.173 525.135 597.657 524.953 598.609C524.454 601.16 524.794 603.994 525.35 606.85C524.942 604.594 525.6 604.198 527.302 605.66C526.78 606.136 526.258 606.601 525.714 607.043C529.027 607.927 530.582 609.605 532.636 606.85C532.727 609.083 530.242 609.287 531.138 611.792C532.364 611.305 533.385 610.511 534.225 609.423C535.428 610.659 535.496 612.438 536.597 613.663C538.412 614.479 538.265 614.649 536.165 614.161C537.8 614.762 539.229 616.258 540.784 617.143C543.054 618.435 543.054 615.794 543.633 619.296C547.763 617.041 548.921 625.554 548.512 628.501C547.945 632.593 553.869 636.118 556.921 635.699C556.604 639.394 554.538 636.515 552.428 635.506C560.7 642.341 566.307 649.471 572.003 659.118C576.929 667.483 585.724 675.475 587.993 685.042C589.049 689.497 587.982 692.931 589.911 697.386C591.704 701.535 592.839 703.507 595.585 706.885C598.57 710.535 591.284 720.442 590.966 723.401C592.272 723.05 596.221 724.886 594.904 727.074C593.497 729.42 591.001 728.593 589.173 730.112C586.552 732.299 589.707 740.109 591.159 742.943C592.396 745.369 594.45 749.62 596.255 751.468C597.866 753.111 597.798 755.526 599.421 757.045C602.508 759.935 610.383 761.805 611.518 765.478C614.696 767.859 617.419 768.006 619.871 771.951C621.312 774.274 622.56 776.7 624.183 778.877C627.451 783.275 633.398 785.655 637.733 787.401C640.343 788.455 645.075 790.699 647.595 790.076C649.274 789.668 651.09 789.01 652.792 790.643C657.139 794.814 660.146 800.335 664.855 804.279C670.564 809.063 676.624 810.82 682.797 813.926C685.475 815.275 687.552 817.678 690.14 819.106C692.602 820.466 695.462 820.761 698.027 821.532C700.614 822.303 704.223 822.722 706.504 824.808C708.365 826.531 709.125 828.798 711.463 829.784C714.334 830.997 716.615 831.507 719.157 833.933C721.155 835.837 722.8 837.356 725.274 837.821C730.006 838.705 732.662 839.079 737.144 841.8C741.173 844.248 742.864 844.826 746.575 843.919C751.489 842.718 755.302 839.986 760.057 838.172C765.334 836.166 767.762 831.734 773.765 831.235C772.608 830.555 771.439 830.294 770.259 830.441C770.384 826.939 773.924 825.431 774.151 830.249C774.844 828.957 775.865 828.435 777.227 828.673C776.932 830.124 776.103 831.28 774.98 831.836C779.508 831.666 783.854 834.091 788.053 836.574C786.566 834.386 780.041 832.969 780.132 829.852C787.179 832.561 790.425 837.696 796.02 843.194C798.811 845.937 800.82 849.383 803.441 852.171C805.234 854.076 808.264 855.209 809.184 858.089C805.722 852.852 810.965 862.577 811.998 863.96C813.768 866.352 815.72 868.54 817.491 870.932C818.546 869.186 820.816 858.633 819.851 857.068C817.4 853.101 820.078 848.544 820.77 845.37C821.553 841.788 824.084 837.186 826.978 835.463C829.94 833.683 834.888 834.772 838.235 834.772C840.028 834.772 846.349 836.166 847.791 834.772C848.71 833.887 849.22 827.041 848.052 826.327C844.59 824.23 844.647 819.197 841.027 817.19C836.885 814.889 834.502 810.355 831.199 806.716C835.376 806.716 839.484 808.723 839.268 802.273C839.189 799.858 838.814 797.331 838.791 794.928C838.746 791.98 843.399 793.273 844.999 793.273H866.073C869.273 793.273 869.489 793.907 869.875 791.153C870.374 787.582 874.244 790.405 875.56 791.89C876.899 787.65 878.624 780.713 881.938 778.264C883.504 777.12 885.161 777.199 885.921 774.864C886.863 771.973 886.704 771.894 888.974 769.763C890.551 775.363 888.134 779.262 892.583 784.386C892.231 780.566 894.568 773.878 895.556 770.477C896.77 766.317 896.838 761.567 898.608 757.713C897.224 757.702 896.293 758.802 895.976 760.286C893.763 757.158 903.466 750.969 895.465 752.182C895.386 748.951 899.641 746.106 898.574 742.898C900.424 746.491 898.722 739.962 898.994 738.352C899.482 735.485 901.207 732.775 902.671 730.622C905.463 726.507 908.89 723.48 910.014 717.949C910.865 713.789 911.375 707.18 906.813 704.845L906.802 704.936ZM508.305 642.081C505.661 642.432 507.465 642.568 508.305 642.081V642.081ZM753.395 776.36C753.679 775.816 754.19 774.852 754.553 773.798C754.643 774.954 755.029 776.269 753.395 776.36Z" fill="#D9E0E8"/>
</g>
<defs>
<clipPath id="clip0_39_267">
<rect width="986" height="822" fill="white" transform="translate(263 49)"/>
</clipPath>
</defs>
</svg>
