<svg width="503" height="82" viewBox="0 0 503 82" fill="none" xmlns="http://www.w3.org/2000/svg">
<g clip-path="url(#clip0_8_187)">
<path d="M98.0763 2.58203C92.3565 2.58203 83.5903 4.40218 80.0465 10.376C76.5183 16.3498 68.5137 29.1064 68.5137 29.1064L76.5183 42.6875C76.5183 42.6875 97.3458 4.05993 98.0763 2.58203Z" fill="white"/>
<path d="M76.3468 56.6424L43.3492 0L0 80.9577H13.771L43.5668 24.8442L76.5178 81.3933L117.069 7.10947L122.292 2.58243H105.878L76.3468 56.6424Z" fill="white"/>
<path d="M21.1543 81.0823H27.4181C28.7703 81.0823 32.3763 81.0823 34.9098 76.5552C36.1221 74.3928 40.8783 64.981 43.9247 58.9449C47.1731 64.6698 52.3956 73.8328 54.1364 76.4619C56.8719 80.6156 58.4884 80.8489 60.7421 80.8489C62.9958 80.8489 67.8452 80.7245 67.8452 80.7245L43.676 38.1299L21.1698 81.0823H21.1543Z" fill="white"/>
<path d="M139.388 52.4884C138.735 55.2108 126.674 79.9617 126.674 79.9617V79.8839C126.487 80.3973 125.648 80.7706 124.809 80.7706H114.954C113.369 80.7706 112.716 79.8839 113.183 79.0127C121.078 62.927 129.643 46.4679 137.523 30.3821C138.176 29.2776 140.492 29.2776 141.144 30.3821L165.5 79.0127C165.966 79.8995 165.22 80.7706 163.821 80.7706H153.874C153.128 80.7706 152.289 80.3973 152.102 79.8839V79.9617C152.102 79.9617 139.948 55.0708 139.388 52.4884Z" fill="white"/>
<path d="M205.337 29.9473C206.829 29.9473 207.56 30.7562 207.109 31.7052L182.847 81.2848C182.194 82.2337 179.971 82.2337 179.318 81.2848L155.258 31.7052C154.792 30.8184 155.538 29.9473 156.921 29.9473H166.698C167.537 29.9473 168.376 30.3051 168.47 30.7562C172.557 39.7947 177.096 48.1643 181.106 57.1873C184.914 48.8177 190.012 39.2036 193.82 30.7562C193.913 30.3206 194.753 29.9473 195.576 29.9473H205.353H205.337Z" fill="white"/>
<path d="M260.593 55.2891C260.593 68.279 251.485 81.4401 233.595 81.4401C215.705 81.4401 206.52 68.2946 206.52 55.2891C206.52 42.2836 215.472 29.2158 233.595 29.2158C251.718 29.2158 260.593 42.2836 260.593 55.2891ZM248.594 55.4291C248.594 47.4951 243.496 39.5611 233.611 39.5611C223.726 39.5611 218.612 47.4951 218.612 55.4291C218.612 63.363 223.632 71.0792 233.611 71.0792C243.589 71.0792 248.594 63.3008 248.594 55.4291Z" fill="white"/>
<path d="M312.351 79.5266C312.351 80.1177 311.713 80.7711 310.703 80.7711H310.61C310.299 80.7711 309.506 80.6156 309.195 80.2578L279.539 53.5311V79.5266C279.539 80.1177 278.824 80.7711 277.892 80.7711H269.343C268.24 80.7711 267.773 80.1177 267.773 79.5266V31.1293C267.773 30.4759 268.24 29.8848 269.343 29.8848H269.312C269.701 29.8848 270.416 30.0403 270.649 30.3204L300.6 57.5759V31.1293C300.6 30.4759 301.3 29.8848 302.248 29.8848H310.734C311.744 29.8848 312.382 30.4759 312.382 31.1293V79.5266H312.351Z" fill="white"/>
<path d="M353.182 38.9855C353.182 39.6388 352.56 40.1522 351.534 40.1522H342.426V79.511C342.426 80.1021 341.866 80.7711 340.856 80.7711H332.308C331.204 80.7711 330.738 80.1177 330.738 79.511V40.1522H321.552C320.604 40.1522 319.904 39.6388 319.904 38.9855V31.6426C319.904 30.9893 320.604 30.3203 321.552 30.3203H351.534C352.56 30.3203 353.182 30.9893 353.182 31.6426V38.9855Z" fill="white"/>
<path d="M362.01 64.172V31.6426C362.01 30.9893 362.709 30.3203 363.657 30.3203H372.206C373.154 30.3203 373.853 30.9893 373.853 31.6426V64.0319C374.553 68.3567 378.485 70.9392 382.884 70.9392C387.282 70.9392 391.821 68.7301 391.821 64.172V31.6426C391.821 30.9893 392.52 30.3203 393.469 30.3203H402.095C402.965 30.3203 403.665 30.9893 403.665 31.6426V64.172C403.665 75.124 394.634 81.5023 382.868 81.5023C371.102 81.5023 361.994 74.8128 361.994 64.172" fill="white"/>
<path d="M413.021 64.172V31.6426C413.021 30.9893 413.721 30.3203 414.669 30.3203H423.233C424.166 30.3203 424.881 30.9893 424.881 31.6426V64.0319C425.596 68.3567 429.513 70.9392 433.911 70.9392C438.31 70.9392 442.848 68.7301 442.848 64.172V31.6426C442.848 30.9893 443.563 30.3203 444.496 30.3203H453.122C453.977 30.3203 454.692 30.9893 454.692 31.6426V64.172C454.692 75.124 445.662 81.5023 433.896 81.5023C422.13 81.5023 413.021 74.8128 413.021 64.172Z" fill="white"/>
<path d="M502.207 79.0135C502.207 79.0135 494.808 64.4212 494.156 63.3789C497.311 61.9322 503 55.4916 503 47.8532C503 32.6542 487.379 29.9629 484.177 29.9629H467.142C466.209 29.9629 465.572 30.554 465.572 31.223V79.5425C465.572 80.1336 466.209 80.787 467.142 80.787H475.691C476.717 80.787 477.416 80.1336 477.416 79.5425V40.3237H484.162C485.576 40.3237 491.14 42.8595 491.14 48.2422C491.14 53.0181 486.12 56.4095 484.162 56.4095H477.991L490.985 79.9781C491.14 80.3514 491.995 80.787 492.477 80.787H500.793C502.052 80.787 502.595 79.9003 502.207 79.0291" fill="white"/>
</g>
<defs>
<clipPath id="clip0_8_187">
<rect width="503" height="82" fill="white"/>
</clipPath>
</defs>
</svg>
