<svg width="428" height="80" viewBox="0 0 428 80" fill="none" xmlns="http://www.w3.org/2000/svg">
<g clip-path="url(#clip0_8_180)">
<path d="M284.762 45.7147C284.762 50.3785 284.881 54.2526 284.673 58.1118C284.613 59.1399 283.406 60.9876 282.929 60.928C281.558 60.7492 279.815 60.1085 279.114 59.0505C278.354 57.8883 278.444 56.0854 278.429 54.5655C278.369 48.0541 278.503 41.5426 278.369 35.0461C278.19 26.538 273.288 22.2169 264.138 22.2318C255.316 22.2467 250.145 26.8956 250.011 35.1504C249.891 42.4366 250.011 49.7229 249.966 57.0092C249.966 58.7674 250.339 61.0174 247.656 61.1217C245.168 61.226 243.782 59.587 243.692 57.2029C243.558 53.299 243.692 49.3951 243.603 45.4912C243.498 41.1552 243.439 41.036 239.237 40.9913C231.07 40.9019 222.904 40.9019 214.738 40.9913C210.699 41.036 209.433 42.7198 210.878 46.2958C212.845 51.1683 216.556 54.342 221.92 54.9082C226.659 55.4 231.413 55.2658 235.228 51.66C236.673 50.2891 238.626 49.4696 239.952 51.4067C241.174 53.2096 241.01 55.6831 239.043 57.0092C234.826 59.8552 230.742 62.6862 224.886 61.5538C219.238 60.4661 213.724 60.0936 209.418 55.4447C199.091 44.2545 200.7 27.5959 211.102 19.654C219.298 13.3959 234.647 13.381 241.964 25.3757C242.366 26.0463 242.798 26.687 243.215 27.3426C243.349 26.5976 243.573 25.8526 243.618 25.1075C243.722 23.0364 243.349 20.8311 243.946 18.909C244.303 17.7319 245.987 16.659 247.313 16.212C247.909 16.0183 249.623 17.3295 249.877 18.2087C250.696 21.0844 251.829 20.4288 253.781 19.2368C264.51 12.6657 277.222 15.7352 283.361 26.4188C284.598 28.5793 285.015 31.1869 285.805 33.6007C286.58 31.172 286.938 28.5048 288.204 26.3592C294.046 16.4057 306.444 12.621 316.667 17.8064C319.081 19.0282 320.721 21.7401 322.762 23.7218C323.269 24.2135 324.014 24.9138 324.506 24.8095C325.027 24.6903 325.594 23.7963 325.713 23.1556C325.996 21.6358 325.757 19.9818 326.234 18.5514C327.173 15.7352 330.273 15.169 332.091 17.8064C333.909 20.4288 334.475 19.5795 336.442 17.9554C341.166 14.0664 346.516 15.1839 351.821 17.0911C353.371 17.6425 355.353 18.1342 356.813 17.6723C367.26 14.3793 376.886 14.4091 384.754 23.3344C385.261 23.9006 385.991 24.2582 386.632 24.7201C386.632 23.8261 386.677 22.9321 386.572 22.0381C386.513 21.5463 386.081 21.0844 386.051 20.5927C385.947 18.8494 385.306 16.4355 387.839 16.2865C389.225 16.212 391.296 17.5531 392.056 18.8345C394.426 22.8576 396.289 27.1787 398.42 31.3359C400.714 35.8209 401.37 41.1701 405.617 44.627C405.811 44.7909 406.079 44.9995 406.109 45.2081C406.258 46.5938 406.347 47.9945 406.467 49.3951C408.985 49.0226 409.015 46.6683 409.805 45.0442C413.545 37.3556 417.136 29.5925 420.817 21.8742C421.488 20.4735 422.054 18.9239 423.082 17.8064C423.813 17.0166 425.824 16.1971 426.212 16.5398C427.166 17.4041 428.313 19.207 427.97 20.1159C425.929 25.6737 423.604 31.1422 421.145 36.5361C415.929 47.9796 409.447 58.8568 405.662 70.941C404.813 73.6529 402.741 76.0667 400.908 78.3763C400.312 79.1362 398.107 79.7322 397.689 79.3448C396.78 78.4657 395.842 76.6926 396.169 75.6793C397.376 72.0139 398.747 68.3037 400.714 64.9958C403.054 61.0621 403.397 57.7691 401.162 53.4927C397.332 46.1766 394.366 38.4284 390.983 30.874C390.715 30.2929 390.104 29.8458 389.657 29.3392C389.493 30.0694 389.001 30.9187 389.21 31.5296C391.416 37.8324 390.149 44.3886 390.79 50.7808C391.475 57.5009 388.808 63.0587 385.485 68.3037C380.016 76.931 369.823 79.6875 359.406 76.2008C356.694 75.2919 354.041 73.9211 351.747 72.2672C350.197 71.1496 349.005 69.2573 348.245 67.4692C347.872 66.605 348.587 64.8766 349.377 64.1167C349.794 63.7144 351.493 64.4147 352.507 64.8617C353.699 65.3683 355.204 65.8749 355.83 66.8434C359.317 72.2374 365.605 69.5255 370.091 71.8648C373.742 69.4957 377.438 67.1861 380.984 64.6978C381.744 64.1614 382.102 62.9395 382.415 61.971C383.026 60.0787 383.458 58.1267 383.965 56.1897C382.206 56.89 380.284 57.3519 378.704 58.3502C364.98 66.9775 345.83 57.6797 344.862 41.7065C344.549 36.5808 344.176 31.3657 347.231 26.5976C348.453 24.6903 346.888 22.5447 344.415 22.351C340.749 22.053 337.5 23.3046 335.652 26.4188C333.7 29.7266 331.942 33.1239 332.15 37.3407C332.493 44.0906 332.24 50.8702 332.21 57.635C332.21 59.2144 332.136 61.2856 330.079 61.0025C328.619 60.7939 326.219 59.1846 326.19 58.1565C326.085 53.3586 324.476 48.4862 326.085 43.733C326.771 41.7214 326.711 40.9466 324.372 40.9615C314.223 41.0062 304.06 40.9615 293.912 41.0509C293.271 41.0509 292.034 42.3472 292.094 42.4366C294.031 45.7147 294.657 49.6037 298.04 52.2411C303.047 56.145 308.233 55.5788 313.597 53.9248C315.833 53.2394 317.785 51.7047 320.005 50.9894C320.944 50.6914 322.703 51.2279 323.254 51.9729C323.776 52.6881 323.641 54.5357 323.03 55.2807C320.139 58.7972 316.667 61.0919 311.705 61.3452C299.604 61.9561 294.702 60.6151 284.777 45.6998L284.762 45.7147ZM366.142 53.9993C371.045 56.3983 374.606 53.9546 378.198 50.9894C381.834 47.9796 383.905 44.1204 384.158 39.6354C384.725 29.7713 377.557 22.3808 367.721 22.2169C357.976 22.053 351.419 27.7747 351.15 36.7C351.001 41.3936 350.48 46.5342 354.697 49.6633C357.916 52.0474 360.718 56.8602 366.142 53.9844V53.9993ZM306.519 34.6885C310.185 34.6885 313.851 34.7928 317.517 34.6885C321.078 34.5693 321.466 33.7199 319.618 30.427C316.772 25.3459 312.718 22.1573 306.519 22.2467C300.394 22.3212 296.415 25.7184 293.346 30.4419C291.885 32.6918 292.854 34.5544 295.536 34.6587C299.202 34.8226 302.868 34.7034 306.534 34.7034L306.519 34.6885ZM223.887 34.7034C223.887 34.7034 223.887 34.7034 223.887 34.6885C228.09 34.6885 232.292 34.6885 236.495 34.6885C237.717 34.6885 238.536 34.2713 237.731 32.9153C237.21 32.0362 236.36 31.3061 235.943 30.3823C231.845 21.3079 220.728 19.1772 214.067 26.3443C212.517 28.0131 211.504 30.1886 210.282 32.1554C208.926 34.3309 210.133 34.7481 212.085 34.7183C216.019 34.6885 219.968 34.7183 223.902 34.7183L223.887 34.7034Z" fill="white"/>
<path d="M16.0196 58.1562C15.1553 59.0801 14.4251 60.1529 13.4267 60.883C9.0157 64.0419 7.12315 63.2671 4.76864 58.2755C1.74353 51.8683 0 45.4165 0 38.1898C0 30.3224 2.71216 23.349 6.55688 17.1058C10.4463 10.8029 16.6753 6.39242 23.7687 3.27825C37.1209 -2.59249 50.026 0.208777 62.3201 5.5878C68.4299 8.26987 72.4237 14.4684 75.9256 20.2945C79.3084 25.9119 81.6331 31.7826 80.9923 38.6517C80.6645 42.1533 81.2456 45.8337 82.0504 49.3054C82.7507 52.2855 79.9194 50.4081 79.517 51.5852C78.6229 54.2524 78.1758 57.1877 76.775 59.5718C69.2644 72.4457 57.5068 79.4638 42.8432 79.7469C32.0244 79.9555 20.982 78.078 13.2181 68.7802C12.0408 67.3647 11.4447 66.4706 13.0094 64.9508C14.6785 63.3416 16.0792 61.4641 17.5992 59.7208C18.7914 59.2887 20.1326 59.0801 21.1459 58.3947C23.0385 57.1132 24.6926 54.4461 26.5255 54.3865C28.433 54.3269 30.3255 56.845 32.3969 57.888C37.2997 60.3764 42.5601 62.2836 48.0738 60.8979C56.0166 58.9013 62.0519 54.0587 65.7923 46.832C66.6566 45.1631 66.299 42.8238 66.2691 40.7973C66.2691 40.5589 64.1233 39.9331 63.8997 40.2013C62.9907 41.3487 62.3052 42.7344 61.7687 44.1201C59.9954 48.6647 56.9852 51.8981 52.5742 54.2375C46.4793 57.4708 40.6973 57.5602 34.6769 54.2077C33.5593 53.5818 31.9052 53.8947 30.5044 53.7904C31.1899 52.1514 31.5326 50.1995 32.6503 48.9329C34.6918 46.6085 37.1507 44.6267 39.5201 42.6003C45.2424 37.713 51.0244 32.8853 56.7468 28.0128C58.2519 26.7314 59.0566 25.4202 57.477 23.3937C49.5342 13.2466 35.5859 12.4718 26.2126 20.8011C18.7318 27.4466 16.4369 37.415 22.1593 47.5472C23.5749 50.0505 22.8 51.3915 21.5036 52.8815C19.8494 54.7888 17.8526 56.4129 16.0047 58.1712L16.0196 58.1562Z" fill="white"/>
<path d="M115.566 41.0054C110.827 41.0054 106.073 40.9011 101.349 41.0501C98.4136 41.1395 97.7132 42.421 98.7414 45.1179C102.452 54.8479 112.6 58.409 121.527 53.1194C122.197 52.7171 122.838 52.2552 123.523 51.9125C125.356 51.0036 127.264 49.4837 128.992 52.0317C130.036 53.5813 128.963 57.1127 126.817 57.8726C122.912 59.2584 118.904 60.808 114.821 61.1656C100.753 62.447 91.9312 54.1922 91.8418 40.1859C91.8418 38.8896 91.8418 37.5783 91.8418 36.282C91.8865 26.1796 98.2944 17.8503 107.727 16.1367C118.755 14.1252 128.814 20.2939 131.317 28.5785C131.556 29.3682 132.181 30.0388 132.629 30.7689C133.165 30.2325 133.806 29.7557 134.223 29.1298C135.654 26.9991 136.712 24.5554 138.411 22.6929C146.472 13.8719 156.814 14.2891 166.486 18.1185C172.313 20.428 176.962 26.0753 177.171 33.2423C177.349 39.3813 178.109 45.55 174.414 51.3761C170.852 56.9935 166.039 60.3014 159.661 61.106C153.655 61.8659 147.62 61.7318 142.196 58.1408C140.392 56.9488 138.157 58.4835 138.291 60.6143C138.545 64.7268 139.245 68.8244 139.156 72.922C139.096 75.0825 137.963 77.3176 136.891 79.2993C136.19 80.5957 133.418 79.8804 133.18 78.3755C132.912 76.5875 132.927 74.7547 132.927 72.9369C132.927 63.9371 132.882 54.9373 132.882 45.9374C132.882 41.1395 132.748 41.0799 128.188 40.9905C123.97 40.9011 119.753 40.9756 115.551 40.9756L115.566 41.0054ZM155.861 22.2161C145.027 22.2161 139.349 27.7143 139.305 38.2787C139.26 49.1559 144.818 54.8926 155.16 55.0863C159.959 55.1757 163.669 53.5962 167.082 50.333C170.778 46.7719 171.865 41.9292 171.865 37.6677C171.865 32.9741 168.974 28.6232 165.234 24.9726C162.328 22.1416 159.243 22.2608 155.861 22.231V22.2161ZM112.421 34.7175C114.254 34.7175 116.087 34.7175 117.92 34.7175C120.021 34.7175 122.123 34.7473 124.209 34.643C125.684 34.5685 126.891 33.8682 126.087 32.1993C125.043 29.9941 124.671 27.6994 122.152 25.9412C118.814 23.6018 115.506 22.7525 111.647 22.5588C107.474 22.3502 101.483 25.5538 99.8144 29.249C97.6536 34.0023 97.9665 34.5834 102.988 34.7026C106.133 34.7771 109.277 34.7026 112.421 34.7026V34.7175Z" fill="white"/>
<path d="M186.751 39.0095C186.751 43.6882 186.751 48.3669 186.751 53.0456C186.751 54.3419 187.109 55.8022 186.647 56.9048C186.021 58.4097 184.963 60.5256 183.726 60.8087C181.715 61.2706 180.671 59.3186 180.463 57.3369C180.388 56.5621 180.403 55.7724 180.403 54.9975C180.403 44.0756 180.403 33.1536 180.403 22.2317C180.403 21.4568 180.373 20.6671 180.463 19.8923C180.671 17.8957 181.729 15.9586 183.741 16.4205C184.978 16.7036 186.543 18.894 186.617 20.2946C186.93 26.523 186.751 32.7662 186.751 39.0095Z" fill="white"/>
<path d="M188.332 4.14203C187.095 5.30426 185.799 7.33071 184.011 7.98632C181.567 8.88034 179.197 6.9284 178.944 4.64864C178.676 2.32419 180.509 0.506345 183.266 0.357341C185.531 0.238139 187.319 0.923555 188.332 4.14203Z" fill="white"/>
<path d="M23.709 37.4153C24.2008 32.9452 23.098 29.7416 25.9443 27.2085C29.8635 23.7367 33.8423 19.9074 39.1027 19.3411C43.4243 18.8643 47.7757 20.8908 51.2777 23.7218C51.8439 24.1838 51.7396 26.0761 51.2926 27.0148C50.771 28.1175 49.6086 28.9966 48.6102 29.831C42.0384 35.2994 35.4518 40.7679 28.8353 46.1767C27.1961 47.5177 26.0188 47.1005 25.527 44.9996C24.8266 42.0344 24.0964 39.0692 23.709 37.4302V37.4153Z" fill="white"/>
</g>
<defs>
<clipPath id="clip0_8_180">
<rect width="428" height="80" fill="white"/>
</clipPath>
</defs>
</svg>
