<svg width="177" height="177" viewBox="0 0 177 177" fill="none" xmlns="http://www.w3.org/2000/svg">
<g clip-path="url(#clip0_353_297)">
<path fill-rule="evenodd" clip-rule="evenodd" d="M88.4997 97.5306C115.389 97.5306 137.265 75.6549 137.265 48.7653C137.265 21.8758 115.389 0 88.4997 0C61.6101 0 39.7344 21.8758 39.7344 48.7653C39.7344 75.6549 61.6101 97.5306 88.4997 97.5306ZM88.4997 10.8367C109.415 10.8367 126.428 27.8504 126.428 48.7653C126.428 69.6802 109.415 86.6939 88.4997 86.6939C67.5848 86.6939 50.5711 69.6802 50.5711 48.7653C50.5711 27.8504 67.5848 10.8367 88.4997 10.8367ZM170.26 90.7286C165.567 87.3873 159.647 86.8057 154.488 89.1031C153.788 88.3662 153.018 87.7016 152.198 87.1164C146.408 82.9912 138.732 83.1357 133.1 87.4704L108.75 106.203C106.886 105.481 104.925 105.116 102.906 105.116H52.3739H52.2692C52.1644 105.116 52.0597 105.123 51.9369 105.134C51.8827 105.138 51.8249 105.141 51.7743 105.149C51.6696 105.16 51.5648 105.178 51.46 105.196L51.4203 105.203C51.3589 105.214 51.2975 105.225 51.2325 105.239C51.1494 105.257 51.0699 105.279 50.9905 105.3L51.4384 107.049L50.9399 105.311C50.8604 105.333 50.7845 105.355 50.7051 105.38C50.6473 105.398 50.5859 105.42 50.4992 105.456C50.398 105.492 50.2933 105.532 50.1958 105.575C50.1452 105.597 50.091 105.622 50.026 105.654C49.9357 105.698 49.8418 105.745 49.7551 105.795L39.4529 111.766C37.9791 103.689 30.8702 97.5305 22.3959 97.5305H5.41837C2.43104 97.5305 0 99.9615 0 102.949V171.581C0 174.569 2.43104 177 5.41837 177H22.3959C29.5301 177 35.8335 172.698 38.4704 166.163H106.341C107.558 166.163 108.757 165.744 109.711 164.989L170.978 116.339C174.945 113.168 177.137 108.436 176.996 103.357C176.856 98.2782 174.399 93.6798 170.263 90.7322L170.26 90.7286ZM28.898 159.661C28.898 163.244 25.9829 166.163 22.3959 166.163H10.8367V108.367H22.3959C25.9793 108.367 28.898 111.282 28.898 114.869V159.661ZM139.711 96.0603C141.354 94.796 143.533 94.6298 145.321 95.5799L118.355 116.325C118.03 115.332 117.607 114.371 117.098 113.457L139.711 96.0603ZM164.22 107.865L104.452 155.326H39.7347V124.131L53.8369 115.953H102.909C105.897 115.953 108.328 118.384 108.328 121.371C108.328 124.359 105.897 126.79 102.909 126.79H77.6633C74.6759 126.79 72.2449 129.221 72.2449 132.208C72.2449 135.195 74.6759 137.626 77.6633 137.626H102.909C106.344 137.626 109.632 136.561 112.417 134.545C112.518 134.48 112.615 134.411 112.713 134.336L157.768 99.6725C159.596 98.2638 162.092 98.2168 163.971 99.5569C165.314 100.514 166.113 102.01 166.156 103.657C166.203 105.304 165.495 106.839 164.213 107.865H164.22ZM91.9452 65.8658C87.9175 69.8862 81.4046 69.8862 77.3734 65.8658H77.3698C73.418 61.9212 66.0454 54.5414 66.0454 54.5414C63.3651 51.8611 63.3651 47.5047 66.0454 44.8244C68.7257 42.1442 73.082 42.1442 75.7623 44.8244L84.6484 53.7106H84.6665L103.862 34.5151C106.542 31.8348 110.899 31.8348 113.579 34.5151C116.259 37.1954 116.259 41.5517 113.579 44.232L91.9452 65.8658Z" fill="url(#paint0_linear_353_297)"/>
</g>
<defs>
<linearGradient id="paint0_linear_353_297" x1="88.5014" y1="0" x2="88.5014" y2="177" gradientUnits="userSpaceOnUse">
<stop stop-color="#4188DC"/>
<stop offset="1" stop-color="#00B4E9"/>
</linearGradient>
<clipPath id="clip0_353_297">
<rect width="177" height="177" fill="white"/>
</clipPath>
</defs>
</svg>
