<svg width="142" height="184" viewBox="0 0 142 184" fill="none" xmlns="http://www.w3.org/2000/svg">
<path fill-rule="evenodd" clip-rule="evenodd" d="M141.135 101.576V46.9043C141.128 36.6393 134.035 27.9031 124.398 26.3141C107.726 23.3943 94.3468 13.3358 82.2486 3.94138C82.2265 3.92609 82.2045 3.9108 82.1824 3.89552C75.2359 -1.34781 65.8708 -1.2942 58.9758 4.0331C58.9611 4.04838 58.9391 4.05603 58.9244 4.07131C46.9057 13.5644 33.5706 23.493 16.8187 26.6651C7.29931 28.2702 0.338088 36.8078 0.301392 46.866C8.9407e-08 60.4786 0 82.3837 0 101.577C0 127.716 13.2536 151.869 34.7704 164.932C44.5249 170.848 54.3375 176.81 60.6755 180.655C66.7987 184.369 74.3333 184.369 80.4571 180.655L106.362 164.932C127.879 151.87 141.133 127.716 141.133 101.577L141.135 101.576ZM129.374 46.9043V101.576C129.374 123.291 118.362 143.355 100.484 154.207L74.5792 169.929C72.0946 171.443 69.0367 171.443 66.5448 169.929L40.6397 154.207C22.7697 143.361 11.75 123.289 11.75 101.576C11.75 82.4602 11.75 60.6304 12.0514 47.0941V46.9565C12.0514 42.9361 14.8374 39.5119 18.6157 38.9005C18.6598 38.8928 18.7039 38.8852 18.7481 38.8852C37.4706 35.3768 52.5173 24.5998 65.9403 14.0138C68.719 11.8659 72.4973 11.8506 75.3053 13.9603C88.7942 24.424 103.871 35.2842 122.513 38.5479C122.527 38.5556 122.549 38.5556 122.564 38.5632C126.475 39.2129 129.364 42.7593 129.364 46.9249L129.374 46.9043ZM70.5672 48.9144C47.8536 48.9144 29.4024 68.0991 29.4024 91.7169C29.4024 115.335 47.8531 134.519 70.5672 134.519C93.2813 134.519 111.732 115.335 111.732 91.7169C111.732 68.0991 93.2813 48.9144 70.5672 48.9144ZM70.5672 61.1437C86.7978 61.1437 99.9706 74.8405 99.9706 91.7169C99.9706 108.593 86.7978 122.29 70.5672 122.29C54.3365 122.29 41.1638 108.593 41.1638 91.7169C41.1638 74.8405 54.3365 61.1437 70.5672 61.1437ZM67.6268 95.914L60.026 88.0107C57.7324 85.6259 54.0057 85.6259 51.7121 88.0107C49.4185 90.3955 49.4185 94.2705 51.7121 96.6553C51.7121 96.6553 58.0192 103.221 61.4004 106.729C64.8479 110.306 70.42 110.306 73.8675 106.729L92.3769 87.4834C94.6704 85.0986 94.6704 81.2236 92.3769 78.8388C90.0833 76.4539 86.3566 76.4539 84.063 78.8388L67.6411 95.914H67.6268Z" fill="url(#paint0_linear_353_314)"/>
<defs>
<linearGradient id="paint0_linear_353_314" x1="70.5677" y1="0" x2="70.5677" y2="183.441" gradientUnits="userSpaceOnUse">
<stop stop-color="#4188DC"/>
<stop offset="1" stop-color="#00B4E9"/>
</linearGradient>
</defs>
</svg>
