<svg width="176" height="182" viewBox="0 0 176 182" fill="none" xmlns="http://www.w3.org/2000/svg">
<path fill-rule="evenodd" clip-rule="evenodd" d="M175.579 100.109C175.579 96.1047 174.306 92.2069 171.95 89.0295L165.205 79.9144C161.884 75.425 156.734 72.7935 151.277 72.7935H112.103C106.646 72.7935 101.496 75.425 98.1749 79.9144L91.4301 89.0295C89.0745 92.2069 87.8017 96.1047 87.8017 100.109V133.983C87.8017 147.974 94.9925 160.904 106.668 167.912C117.085 174.168 128.76 181.175 128.76 181.175C130.574 182.267 132.813 182.267 134.627 181.175C134.627 181.175 146.302 174.168 156.72 167.912C168.395 160.897 175.585 147.969 175.585 133.983V100.109H175.579ZM163.874 100.109V133.983C163.874 143.644 158.914 152.57 150.846 157.415L131.688 168.919L112.53 157.415C104.468 152.577 99.501 143.644 99.501 133.983V100.109C99.501 98.7741 99.9252 97.4773 100.715 96.4233L107.46 87.3081C108.565 85.8142 110.284 84.9345 112.098 84.9345H151.272C153.093 84.9345 154.805 85.8141 155.91 87.3081L162.655 96.4233C163.437 97.4774 163.869 98.7741 163.869 100.109H163.874ZM47.3474 34.7167C46.7182 33.1925 45.6356 31.6909 44.4358 30.1212C41.773 26.6176 38.3056 23.1141 35.16 19.603C34.9552 19.3755 34.765 19.1253 34.5967 18.8598C32.1899 15.1668 31.9485 10.3968 33.9676 6.4611C35.9939 2.533 39.9369 0.0758518 44.2017 0.0758518C55.6795 1.73037e-05 73.0323 1.73418e-05 84.5084 1.73418e-05C88.8391 -0.00756552 92.8186 2.47212 94.8522 6.4307C96.8858 10.3893 96.6518 15.197 94.2231 18.9129C94.0475 19.1859 93.85 19.4438 93.6233 19.6864C90.4557 23.1597 86.9882 26.6479 84.3181 30.1363C83.1257 31.6984 82.0356 33.1923 81.4138 34.7091C89.3583 38.0305 96.7103 43.521 103.147 50.4673C107.609 55.2904 111.618 60.8034 115.064 66.726H112.086C108.736 66.726 105.481 67.4692 102.503 68.857C100.133 65.27 97.5213 61.9107 94.7049 58.8698C86.1752 49.656 75.7511 43.324 64.3761 43.324C53.0008 43.324 42.5757 49.6484 34.0473 58.8698C20.5433 73.4601 11.7057 95.3767 11.7057 113.916C11.7057 143.407 35.729 151.658 64.3761 151.658C71.5524 151.658 78.4362 151.142 84.7271 149.906C86.1609 153.865 88.1214 157.596 90.5501 160.985C82.5764 162.919 73.7394 163.791 64.375 163.791C28.413 163.791 0 150.93 0 113.916C0 92.5694 10.0513 67.2718 25.5964 50.4657C32.0339 43.5194 39.3932 38.0291 47.3369 34.7074L47.3474 34.7167ZM128.76 123.995L121.196 116.154C118.914 113.788 115.205 113.788 112.923 116.154C110.64 118.52 110.64 122.364 112.923 124.731C112.923 124.731 119.199 131.245 122.564 134.725C125.995 138.274 131.54 138.274 134.971 134.725L144.181 125.178L153.391 115.631C155.673 113.264 155.673 109.42 153.391 107.054C151.108 104.688 147.4 104.688 145.117 107.054L128.775 123.995H128.76ZM58.5332 70.7149C51.6275 73.043 46.8286 79.3523 46.8286 86.4505C46.8286 95.4216 54.4952 103.134 64.3854 103.134C67.4213 103.134 70.2377 104.931 70.2377 107.684C70.2377 110.437 67.4213 112.234 64.3854 112.234C62.1689 112.234 60.1645 111.271 59.133 109.641C57.3481 106.85 53.7124 106.077 51.0203 107.927C48.3283 109.777 47.5822 113.546 49.3671 116.337C51.4155 119.544 54.6487 122.108 58.5331 123.412V127.401C58.5331 130.753 61.152 133.467 64.3854 133.467C67.6189 133.467 70.2377 130.753 70.2377 127.401V123.42C77.1434 121.091 81.9422 114.782 81.9422 107.684C81.9422 98.7129 74.2757 91.0005 64.3854 91.0005C61.3495 91.0005 58.5331 89.2033 58.5331 86.4504C58.5331 83.6976 61.3495 81.9003 64.3854 81.9003C66.602 81.9003 68.6064 82.8634 69.6379 84.4938C71.4228 87.2844 75.0585 88.0579 77.7505 86.2076C80.4426 84.3573 81.1887 80.5884 79.4038 77.7977C77.3554 74.59 74.1221 72.0267 70.2377 70.7225V66.7337C70.2377 63.3817 67.6189 60.667 64.3854 60.667C61.152 60.667 58.5332 63.3817 58.5332 66.7337V70.7149ZM69.9598 31.5776C68.1236 31.3273 66.2655 31.1984 64.3854 31.1984C62.5273 31.1984 60.6838 31.3197 58.8624 31.5624C57.8968 29.4238 56.4263 26.6561 55.4243 25.1317C52.6006 20.8396 48.4161 16.5095 44.5171 12.202C55.9437 12.1262 73.0331 12.1262 84.4156 12.1262C80.4506 16.4412 76.2078 20.7939 73.3549 25.124C72.2283 26.8379 70.7945 29.545 69.9532 31.5699L69.9598 31.5776Z" fill="url(#paint0_linear_353_308)"/>
<defs>
<linearGradient id="paint0_linear_353_308" x1="87.7927" y1="0" x2="87.7927" y2="181.994" gradientUnits="userSpaceOnUse">
<stop stop-color="#4188DC"/>
<stop offset="1" stop-color="#00B4E9"/>
</linearGradient>
</defs>
</svg>
