<svg width="197" height="52" viewBox="0 0 197 52" fill="none" xmlns="http://www.w3.org/2000/svg">
<g clip-path="url(#clip0_339_254)">
<path d="M8.17051 34.0372L7.83461 37.1481C9.35977 37.6498 10.9576 38.1151 12.5917 38.1151C17.2488 38.1151 21.0708 36.1446 21.0708 31.1635C21.0708 30.7712 21.0345 30.4063 20.9891 30.0597H17.3033C17.4576 30.4428 17.5484 30.8716 17.5484 31.3642C17.5484 34.1011 14.8885 35.1684 12.9911 35.1684C11.2935 35.1775 9.3053 34.5025 8.17051 34.0372ZM19.5094 17.8989L19.9724 14.8246C18.3746 14.2589 16.5498 13.9853 15.0156 13.9853C10.8214 13.9853 7.56226 16.193 7.56226 20.3347C7.56226 22.214 8.23406 23.5095 9.23267 24.4856H16.2593C13.7083 23.1719 11.0937 22.3235 11.0937 20.0337C11.0937 17.5979 13.2907 16.9228 15.1518 16.9228C16.8857 16.9319 17.8117 17.233 19.5094 17.8989ZM16.2593 28.6639H25.2196V25.8814H11.0211C12.7914 26.894 14.8249 27.56 16.1141 28.6639H16.2593ZM26.3907 38.1151H29.6589V13.9853H26.3907V38.1151ZM39.282 38.1151H42.5502V13.9853H39.282V25.8814H30.821V28.6639H39.282V38.1151ZM49.8401 39.2007C49.8401 49.8926 39.4 50.0842 39.0187 50.0842H12.4555C1.62502 50.0842 1.62502 39.2007 1.62502 39.2007V12.5256C1.62502 1.63298 12.4646 1.63298 12.4646 1.63298H39.0096C49.8401 1.63298 49.8401 12.5256 49.8401 12.5256V39.2007ZM51.4651 39.4744V12.2519C51.4651 12.2519 51.4651 0 39.2729 0H12.1922C12.1922 0 0 0 0 12.2519V39.4744C0 39.4744 0 51.7263 12.1922 51.7263H39.282C39.282 51.7172 51.4651 51.7172 51.4651 39.4744Z" fill="#0080C8"/>
<path d="M188.849 22.7248H190.846V4.15992H196.81V2.41747H182.884V4.15992H188.849V22.7248ZM163.429 22.7248H166.961C173.642 22.7248 178.535 19.9059 178.535 12.5438C178.535 6.61396 175.667 2.41747 168.431 2.41747H163.42V22.7248H163.429ZM165.426 4.15992H168.35C172.862 4.15992 176.547 6.22168 176.547 12.4252C176.547 18.6469 172.816 20.9824 167.079 20.9824H165.426V4.15992ZM153.788 22.7248H155.785V2.41747H153.788V22.7248ZM125.191 22.7248H127.188V4.42448H127.243L134.832 22.7248H136.539L143.893 4.42448H143.947V22.7248H145.944V2.41747H143.076L135.668 20.2799L128.287 2.41747H125.191V22.7248ZM102.813 22.7248H104.81V13.155H115.032V22.7248H117.03V2.41747H115.032V11.4034H104.81V2.41747H102.813V22.7248ZM95.2599 2.82799C94.2159 2.2715 91.8101 2.0708 90.6299 2.0708C84.3749 2.0708 80.444 6.40413 80.444 12.5712C80.444 18.8568 84.266 23.0715 90.6299 23.0715C91.9009 23.0715 94.1614 22.8708 95.2599 22.1957L95.1419 20.4533C93.9798 21.1557 91.9554 21.329 90.6208 21.329C85.2919 21.329 82.4322 17.689 82.4322 12.5712C82.4322 7.53536 85.3826 3.81326 90.6208 3.81326C92.0371 3.81326 93.8618 4.01396 95.1419 4.68905L95.2599 2.82799ZM63.876 22.1957C64.9473 22.661 66.4815 23.0715 68.4515 23.0715C71.5745 23.0715 75.0787 21.4385 75.0787 17.3424C75.0787 11.4034 65.8188 11.3761 65.8188 7.30729C65.8188 4.68905 68.1066 3.81326 70.1855 3.81326C71.5472 3.81326 72.9635 4.07782 73.8622 4.57045L74.18 2.73677C72.791 2.21677 71.1932 2.0708 70.2127 2.0708C66.654 2.0708 63.8125 4.10519 63.8125 7.36203C63.8125 12.6806 73.0724 13.1824 73.0724 17.169C73.0724 20.0519 71.0207 21.329 68.5242 21.329C66.6449 21.329 65.256 20.8911 64.0667 20.134L63.876 22.1957ZM180.742 49.2996H184.8V40.3957H192.897V49.2996H196.946V29.0013H192.897V37.2027H184.8V29.0013H180.742V49.2996ZM176.856 45.6048C175.903 46.0975 174.024 46.4533 172.426 46.4533C168.114 46.4533 165.563 43.3424 165.563 39.2097C165.563 35.0497 168.168 31.8476 172.335 31.8476C173.788 31.8476 175.167 32.0483 176.711 32.9241L177.001 29.494C175.521 28.9101 173.76 28.6455 172.426 28.6455C165.563 28.6455 161.341 32.541 161.341 39.5017C161.341 46.3712 165.889 49.6554 172.426 49.6554C173.96 49.6554 175.558 49.3634 177.028 49.0168L176.856 45.6048ZM156.738 29.3754C155.268 28.8827 153.643 28.6455 151.9 28.6455C148.341 28.6455 144.837 30.3059 144.837 34.8399C144.837 41.5543 153.697 39.9578 153.697 43.8259C153.697 45.6596 151.645 46.4441 150.111 46.4441C148.523 46.4441 146.925 45.9515 145.536 45.1943L145.154 48.8617C147.152 49.3543 148.141 49.6462 150.338 49.6462C154.423 49.6462 157.919 47.9585 157.919 43.5066C157.919 36.701 149.058 38.1789 149.058 34.6666C149.058 32.4589 150.856 31.8476 152.245 31.8476C153.661 31.8476 155.077 32.1669 156.357 32.7234L156.738 29.3754ZM123.684 49.2996H127.561V34.1192H127.624L135.35 49.2996H140.298V29.0013H136.421V44.1817H136.367L128.668 29.0013H123.693V49.2996H123.684ZM107.071 49.2996H119.054V46.0975H111.12V40.3957H118.328V37.1936H111.12V32.1852H118.991V28.9831H107.062V49.2996H107.071ZM83.3582 49.2996H87.5524L89.3226 44.6469H97.5113L99.2453 49.2996H103.73L95.7955 28.9922H91.22L83.3582 49.2996ZM96.3856 41.454H90.4847L93.4079 33.0792H93.4624L96.3856 41.454ZM63.8216 49.2996H67.8705V40.3957H75.9775V49.2996H80.0264V29.0013H75.9775V37.2027H67.8705V29.0013H63.8216V49.2996Z" fill="#575756"/>
</g>
<defs>
<clipPath id="clip0_339_254">
<rect width="197" height="52" fill="white"/>
</clipPath>
</defs>
</svg>
