<svg width="324" height="53" viewBox="0 0 324 53" fill="none" xmlns="http://www.w3.org/2000/svg">
<g clip-path="url(#clip0_339_215)">
<path d="M88.8359 19.1738H95.4309L97.8142 31.5939L101.275 19.1738H107.837L111.33 31.5617L113.714 19.1738H120.276L115.346 41.3365H108.555L104.605 27.3679L100.687 41.3365H93.8964L88.9012 19.1738" fill="#27ADEA"/>
<path d="M121.777 25.9492H134.673V29.2397H126.609V31.6915H134.086V34.8207H126.609V37.8532H134.935V41.3373H121.81V25.9492" fill="#27ADEA"/>
<path d="M136.665 36.2717L141.236 35.9813C141.334 36.7233 141.53 37.2717 141.857 37.6589C142.346 38.2718 143.064 38.5944 143.979 38.5944C144.893 38.5944 145.187 38.4331 145.578 38.1105C145.938 37.7879 146.133 37.433 146.133 37.0137C146.133 36.5943 145.97 36.2717 145.611 35.9491C145.252 35.6265 144.436 35.3361 143.13 35.0458C141.008 34.5619 139.506 33.949 138.624 33.1747C137.71 32.4005 137.253 31.4004 137.253 30.2068C137.253 29.0132 137.482 28.6583 137.939 27.9809C138.396 27.2711 139.114 26.7227 140.028 26.3356C140.975 25.9485 142.248 25.7227 143.848 25.7227C145.448 25.7227 147.341 26.0775 148.386 26.8195C149.431 27.5615 150.051 28.7228 150.247 30.3036L145.709 30.5617C145.578 29.8842 145.35 29.368 144.958 29.0454C144.566 28.7228 144.044 28.5615 143.358 28.5615C142.673 28.5615 142.379 28.6906 142.085 28.9164C141.791 29.1422 141.661 29.4326 141.661 29.7874C141.661 30.1423 141.791 30.2391 142.02 30.4649C142.248 30.6584 142.771 30.852 143.62 31.0456C145.709 31.4972 147.243 31.9488 148.158 32.4005C149.072 32.8521 149.725 33.4328 150.149 34.1103C150.574 34.7877 150.769 35.562 150.769 36.4007C150.769 37.2395 150.508 38.3041 149.953 39.1428C149.398 39.9816 148.615 40.5945 147.635 41.0462C146.656 41.4656 145.383 41.6914 143.881 41.6914C141.236 41.6914 139.408 41.1752 138.363 40.1752C137.351 39.1751 136.763 37.8847 136.633 36.3362" fill="#27ADEA"/>
<path d="M152.141 25.9492H166.767V29.7559H161.87V41.3373H157.07V29.7559H152.173V25.9492" fill="#27ADEA"/>
<path d="M168.922 25.9492H181.818V29.2397H173.754V31.6915H181.23V34.8207H173.754V37.8532H182.079V41.3373H168.955V25.9492" fill="#27ADEA"/>
<path d="M189.555 32.2077H191.58C191.808 32.2077 192.233 32.1431 192.853 31.9818C193.179 31.9173 193.441 31.756 193.636 31.4979C193.832 31.2399 193.93 30.9495 193.93 30.5947C193.93 30.1108 193.767 29.7236 193.441 29.4656C193.114 29.2075 192.526 29.0784 191.645 29.0784H189.523V32.2077H189.555ZM184.724 41.3373V25.9492H192.755C194.257 25.9492 195.367 26.0783 196.15 26.3363C196.934 26.5944 197.587 27.0461 198.044 27.7235C198.534 28.401 198.762 29.2397 198.762 30.2075C198.762 31.1753 198.566 31.7883 198.207 32.4335C197.848 33.0464 197.326 33.5626 196.673 33.9497C196.248 34.2078 195.693 34.4013 194.975 34.5626C195.563 34.7562 195.954 34.9498 196.216 35.1433C196.379 35.2724 196.64 35.5304 196.999 35.9498C197.326 36.3692 197.554 36.6918 197.685 36.9176L200.003 41.3695H194.551L191.971 36.6595C191.645 36.0466 191.351 35.6595 191.09 35.4659C190.731 35.2401 190.339 35.1111 189.915 35.1111H189.49V41.3695H184.658" fill="#27ADEA"/>
<path d="M201.635 25.9492H206.14L212.017 34.4659V25.9492H216.555V41.3373H212.017L206.173 32.8851V41.3373H201.635V25.9492Z" fill="#27ADEA"/>
<path d="M226.482 34.0138L233.077 33.5944C233.207 34.659 233.501 35.4655 233.958 36.0139C234.677 36.9172 235.689 37.3689 237.027 37.3689C238.366 37.3689 238.79 37.143 239.313 36.6914C239.835 36.2397 240.129 35.6913 240.129 35.1106C240.129 34.53 239.868 34.0138 239.378 33.5622C238.856 33.1105 237.68 32.6911 235.819 32.2718C232.783 31.5943 230.596 30.691 229.322 29.5942C228.016 28.4651 227.363 27.0456 227.363 25.3036C227.363 23.5616 227.69 23.0777 228.375 22.0776C229.028 21.0775 230.041 20.271 231.379 19.6904C232.718 19.1097 234.546 18.8193 236.897 18.8193C239.247 18.8193 241.957 19.3355 243.459 20.4001C244.961 21.4647 245.875 23.1422 246.136 25.4326L239.606 25.8198C239.443 24.8197 239.084 24.11 238.496 23.6261C237.941 23.1744 237.158 22.9486 236.178 22.9486C235.199 22.9486 234.774 23.1099 234.35 23.4648C233.958 23.7874 233.73 24.2068 233.73 24.6907C233.73 25.1746 233.893 25.3681 234.219 25.6585C234.546 25.9488 235.33 26.2391 236.537 26.465C239.574 27.1102 241.729 27.7554 243.034 28.4328C244.34 29.078 245.287 29.9168 245.908 30.8846C246.495 31.8524 246.789 32.9492 246.789 34.1751C246.789 35.401 246.397 36.9172 245.581 38.1108C244.797 39.3045 243.687 40.2077 242.251 40.8529C240.814 41.4659 239.019 41.7885 236.864 41.7885C233.044 41.7885 230.4 41.0788 228.93 39.6271C227.461 38.1754 226.645 36.3365 226.449 34.0783" fill="#27ADEA"/>
<path d="M248.518 25.9492H263.144V29.7559H258.247V41.3373H253.447V29.7559H248.55V25.9492" fill="#27ADEA"/>
<path d="M272.448 35.4659L270.718 29.9172L269.02 35.4659H272.448ZM273.428 38.8209H267.976L267.225 41.3695H262.295L268.139 25.9814H273.395L279.239 41.3695H274.211L273.428 38.8209Z" fill="#27ADEA"/>
<path d="M278.193 25.9492H292.82V29.7559H287.923V41.3373H283.123V29.7559H278.226V25.9492" fill="#27ADEA"/>
<path d="M295.01 25.9492H307.906V29.2397H299.842V31.6915H307.318V34.8207H299.842V37.8532H308.167V41.3373H295.042V25.9492" fill="#27ADEA"/>
<path d="M309.896 36.2717L314.467 35.9813C314.565 36.7233 314.761 37.2717 315.087 37.6589C315.577 38.2718 316.295 38.5944 317.209 38.5944C318.123 38.5944 318.417 38.4331 318.809 38.1105C319.168 37.7879 319.364 37.433 319.364 37.0137C319.364 36.5943 319.201 36.2717 318.842 35.9491C318.482 35.6265 317.666 35.3361 316.36 35.0458C314.238 34.5619 312.736 33.949 311.855 33.1747C310.941 32.4005 310.484 31.4004 310.484 30.2068C310.484 29.0132 310.712 28.6583 311.169 27.9809C311.626 27.2711 312.345 26.7227 313.259 26.3356C314.205 25.9485 315.479 25.7227 317.079 25.7227C318.678 25.7227 320.572 26.0775 321.617 26.8195C322.661 27.5615 323.282 28.7228 323.478 30.3036L318.939 30.5617C318.809 29.8842 318.58 29.368 318.189 29.0454C317.797 28.7228 317.274 28.5615 316.589 28.5615C315.903 28.5615 315.609 28.6906 315.316 28.9164C315.022 29.1422 314.891 29.4326 314.891 29.7874C314.891 30.1423 315.022 30.2391 315.25 30.4649C315.479 30.6584 316.001 30.852 316.85 31.0456C318.939 31.4972 320.474 31.9488 321.388 32.4005C322.302 32.8521 322.955 33.4328 323.38 34.1103C323.804 34.7877 324 35.562 324 36.4007C324 37.2395 323.739 38.3041 323.184 39.1428C322.629 39.9816 321.845 40.5945 320.866 41.0462C319.886 41.4656 318.613 41.6914 317.111 41.6914C314.467 41.6914 312.638 41.1752 311.594 40.1752C310.582 39.1751 309.994 37.8847 309.863 36.3362" fill="#27ADEA"/>
<path d="M28.3686 52.9982C21.3231 52.9982 14.3169 50.2981 9.11601 45.5913C3.52339 40.5265 0.441406 33.5874 0.441406 26.045C0.441406 10.444 19.0835 0.862815 20.902 0.407949C30.9707 -1.22763 37.7713 2.36613 41.7021 5.66633C46.8377 9.97627 50.158 16.5831 50.1645 22.5093C50.3473 29.2484 47.9379 35.4681 43.3737 40.0265C39.1751 44.2203 33.4128 46.6688 27.954 46.5817C25.0059 46.5462 20.014 45.4494 15.6718 42.4718C12.0217 39.9684 7.64358 35.281 7.52605 27.1676C7.42484 19.5381 10.546 14.7927 13.1807 12.1538C16.5533 8.7762 21.1632 6.8406 25.8253 6.8406C34.6697 6.8406 43.3084 17.9768 43.3084 24.4384C43.3084 34.7391 32.7631 39.1006 28.5678 39.1006C21.8488 39.1006 18.3456 35.9262 16.5892 33.2648C14.7903 30.5388 14.1536 27.3096 14.1536 25.374C14.1536 22.1706 15.5705 19.0994 18.1465 16.7251C20.5559 14.5024 23.6412 13.2281 26.6089 13.2281C32.6161 13.2281 37.1053 18.8413 37.1053 23.8578C37.1053 26.7128 35.7667 29.4904 33.6119 31.1066C31.6791 32.5583 29.2501 32.9841 26.7721 32.3002C22.616 31.226 20.2131 27.8322 20.0009 25.0385C19.903 23.7255 20.3927 22.3964 21.3819 21.3028C22.456 20.1156 23.997 19.3446 25.4042 19.293C26.6219 19.251 27.8071 19.7898 28.7604 20.8189C29.7333 21.8705 30.2459 23.2222 30.1022 24.3449C29.9912 25.203 29.1979 25.8095 28.3294 25.6966C27.461 25.5869 26.8505 24.803 26.9615 23.9449C26.968 23.8158 26.8048 23.3061 26.3608 22.8609C26.0735 22.5738 25.7568 22.4028 25.525 22.4157C25.0744 22.4319 24.3268 22.7416 23.7456 23.3835C23.5073 23.6481 23.1123 24.1804 23.1612 24.7998C23.2592 26.1127 24.552 28.4871 27.5981 29.2742C29.1456 29.7001 30.556 29.4678 31.6987 28.6097C33.0797 27.5709 33.9384 25.7482 33.9384 23.8513C33.9384 20.3834 30.7356 16.3509 26.6089 16.3509C22.4822 16.3509 17.3205 20.2898 17.3205 25.3675C17.3205 25.7998 17.4478 35.965 28.5678 35.965C30.925 35.965 40.1415 32.9551 40.1415 24.432C40.1415 19.8833 32.9557 9.96337 25.8253 9.96337C22.0022 9.96337 18.215 11.5602 15.4334 14.3475C13.2231 16.5605 10.6048 20.5737 10.6929 27.1225C10.8855 40.5104 24.3921 43.4073 27.9997 43.4493C32.6129 43.517 37.5199 41.4233 41.1242 37.8231C45.0779 33.8713 47.1641 28.4548 47.0009 22.5706V22.5287C47.0009 17.48 44.1181 11.7957 39.6551 8.05035C36.2531 5.19534 30.3667 2.09515 21.5843 3.46297C20.6375 3.88235 16.2855 6.13733 12.1719 9.79884C6.4911 14.854 3.61154 20.3221 3.61154 26.045C3.61154 32.697 6.32786 38.82 11.261 43.2848C15.884 47.4689 22.11 49.869 28.3425 49.869C46.5079 49.54 53.0898 30.6743 53.1551 30.484C53.4326 29.6646 54.3271 29.2226 55.1597 29.4968C55.9889 29.771 56.4362 30.6582 56.1587 31.4776C56.0869 31.6937 54.3206 36.8295 50.0535 42.0589C44.3368 49.0625 36.8375 52.8466 28.3719 53.0015L28.3686 52.9982Z" fill="#27ADEA"/>
<path d="M0 15.5283V41.8848H26.7062V15.5283H19.5236V37.0458H17.2709V15.5283H9.85973V37.0458H7.37848V15.5283H0.0326481" fill="#231F20"/>
<path d="M57.0689 15.5283V22.561H34.1826V25.2386H57.0689V41.8848H30.1016V34.6263H52.3349V32.1745H30.1016V15.5283H57.0689Z" fill="#231F20"/>
<path d="M59.1577 22.7551H59.5495C59.5822 22.7551 59.6148 22.7228 59.6475 22.6906C59.6475 22.6906 59.6801 22.6261 59.6801 22.5938V22.497C59.6801 22.497 59.6148 22.4325 59.5822 22.4325H59.1904V22.7874L59.1577 22.7551ZM58.8965 23.5294V22.2067H59.5822C59.6801 22.2067 59.7454 22.2067 59.778 22.2712C59.8433 22.2712 59.876 22.3357 59.9086 22.4003C59.9413 22.4648 59.9739 22.5293 59.9739 22.5938C59.9739 22.6583 59.9739 22.7874 59.876 22.8519C59.8107 22.9164 59.7128 22.9487 59.6148 22.9809C59.6475 22.9809 59.6801 22.9809 59.7127 23.0455L59.8107 23.1422C59.8107 23.1422 59.8433 23.2067 59.9086 23.3035L60.0719 23.5616H59.7454L59.6475 23.3358C59.5822 23.1745 59.5169 23.11 59.4516 23.0455C59.3863 23.0132 59.3536 22.9809 59.2557 22.9809H59.1904V23.5294H58.8965ZM59.4516 21.8196C59.2883 21.8196 59.1251 21.8518 58.9618 21.9486C58.7986 22.0454 58.668 22.1744 58.5701 22.3357C58.4721 22.497 58.4395 22.6583 58.4395 22.8519C58.4395 23.0454 58.4721 23.2068 58.5701 23.3681C58.668 23.5294 58.7986 23.6584 58.9618 23.7552C59.1251 23.852 59.2883 23.8842 59.4842 23.8842C59.6801 23.8842 59.8433 23.852 60.0066 23.7552C60.1698 23.6584 60.3004 23.5294 60.3984 23.3681C60.4963 23.2068 60.529 23.0454 60.529 22.8519C60.529 22.6583 60.4963 22.497 60.3984 22.3357C60.3004 22.1744 60.1698 22.0454 60.0066 21.9486C59.8433 21.8518 59.6801 21.8196 59.5169 21.8196H59.4516ZM59.4516 21.5938C59.6801 21.5938 59.876 21.6583 60.0719 21.7551C60.2678 21.8518 60.431 22.0131 60.529 22.2067C60.6269 22.4002 60.6922 22.6261 60.6922 22.8519C60.6922 23.0777 60.6269 23.2713 60.529 23.4648C60.431 23.6584 60.2678 23.8197 60.0719 23.9165C59.876 24.0133 59.6475 24.0778 59.4516 24.0778C59.2557 24.0778 59.0271 24.0133 58.8312 23.9165C58.6354 23.8197 58.4721 23.6584 58.3742 23.4648C58.2762 23.2713 58.2109 23.0454 58.2109 22.8519C58.2109 22.6583 58.2762 22.4325 58.3742 22.2067C58.5048 22.0131 58.6354 21.8518 58.8312 21.7551C59.0271 21.6583 59.2557 21.5938 59.4516 21.5938Z" fill="#231F20"/>
</g>
<defs>
<clipPath id="clip0_339_215">
<rect width="324" height="53" fill="white"/>
</clipPath>
</defs>
</svg>
